<?xml version="1.0" encoding="UTF-8"?>
<!DOCTYPE svg PUBLIC "-//W3C//DTD SVG 1.1//EN" "http://www.w3.org/Graphics/SVG/1.1/DTD/svg11.dtd">
<!-- Creator: CorelDRAW -->
<svg xmlns="http://www.w3.org/2000/svg" xml:space="preserve" width="17.9055mm" height="17.8554mm" version="1.1" shape-rendering="geometricPrecision" text-rendering="geometricPrecision" image-rendering="optimizeQuality" fill-rule="evenodd" clip-rule="evenodd"
viewBox="0 0 98.51 98.23"
 xmlns:xlink="http://www.w3.org/1999/xlink"
 xmlns:xodm="http://www.corel.com/coreldraw/odm/2003">
 <g id="__x0023_Layer_x0020_1">
  <metadata id="CorelCorpID_0Corel-Layer"/>
  <g id="_2727624446528">
   <polygon fill="white" fill-rule="nonzero" points="0,98.23 98.22,98.23 98.22,0 0,0 "/>
   <path fill="#006FCF" fill-rule="nonzero" d="M62.07 68.44l-1.98 -2.43 0 2.43 -6.46 0 0 -4.15c-0.84,0.39 -1.75,0.58 -2.72,0.58l-2.28 0 0 3.57 -9.76 0 -1.78 -2.34 -1.78 2.34 -16.2 0 0 -15.42 16.27 0 1.78 2.32 1.78 -2.32 59.3 0 0 -53.02 -98.23 0 0 41.43 3.7 -8.64 6.36 0 2.06 4.82 0 -4.82 7.96 0 1.23 3.5 1.22 -3.5 35.53 0 0 1.79c1.29,-1.14 3.04,-1.79 5.1,-1.79l11.31 0 2.07 4.82 0 -4.82 6.7 0 1.77 2.75 0 -2.75 6.69 0 0 15.43 -6.65 0 -1.79 -2.79 0 2.79 -9.72 0 -0.96 -2.36 -2.66 0 -0.95 2.36 -6.03 0c-1.98,0 -3.64,-0.6 -4.88,-1.67l0 1.67 -9.97 0 -1.98 -2.43 0 2.43 -36.98 0 -0.96 -2.36 -2.66 0 -0.95 2.36 -4.56 0 0 50.02 98.23 0 0 -30.93c-0.99,0.72 -2.27,1.14 -3.73,1.14l-32.43 0z"/>
   <path fill="#2B6FB6" fill-rule="nonzero" d="M71.25 37.44l1.6 3.97 -3.21 0 1.6 -3.97zm-3.58 8.85l0 0 0.95 -2.36 5.26 0 0.96 2.36 3.32 0 -4.96 -11.57 -3.82 0 -4.96 11.57 3.24 0z"/>
   <polygon fill="#2B6FB6" fill-rule="nonzero" points="81.4,38.85 86.17,46.29 89.73,46.29 89.73,34.71 86.81,34.71 86.81,41.89 82.19,34.71 78.47,34.71 78.47,46.29 81.4,46.29 "/>
   <path fill="#2B6FB6" fill-rule="nonzero" d="M6.83 37.44l1.6 3.97 -3.21 0 1.61 -3.97zm2.63 6.48l0 0 0.96 2.36 3.32 0 -4.96 -11.57 -3.82 0 -4.96 11.57 3.24 0 0.95 -2.36 5.26 0z"/>
   <polygon fill="#2B6FB6" fill-rule="nonzero" points="28.52,46.29 28.52,34.71 23.9,34.71 21.32,42.11 18.72,34.71 14.05,34.71 14.05,46.29 16.95,46.29 16.95,37.72 20,46.29 22.57,46.29 25.61,37.72 25.61,46.29 "/>
   <polygon fill="#2B6FB6" fill-rule="nonzero" points="39.91,37.31 39.91,34.71 30.47,34.71 30.47,46.29 39.91,46.29 39.91,43.69 33.41,43.69 33.41,41.72 39.75,41.72 39.75,39.19 33.41,39.19 33.41,37.31 "/>
   <path fill="#2B6FB6" fill-rule="nonzero" d="M47.7 39.67l-3.19 0 0 -2.37 3.19 0c0.9,0 1.36,0.54 1.36,1.19 0,0.66 -0.46,1.17 -1.36,1.17zm4.31 -1.22l0 0c0,-2.21 -1.54,-3.74 -4.01,-3.74l-6.43 0 0 11.57 2.94 0 0 -4.1 1.14 0 3.46 4.1 3.62 0 -3.75 -4.22c1.89,-0.4 3.03,-1.82 3.03,-3.62z"/>
   <polygon fill="#2B6FB6" fill-rule="nonzero" points="53.2,34.71 53.2,40.6 53.2,46.29 56.14,46.29 56.14,40.62 56.14,34.71 "/>
   <polygon fill="#2B6FB6" fill-rule="nonzero" points="30.51,57.54 30.51,54.94 21.08,54.94 21.08,66.52 30.51,66.52 30.51,63.92 24.02,63.92 24.02,61.95 30.35,61.95 30.35,59.42 24.02,59.42 24.02,57.54 "/>
   <polygon fill="#2B6FB6" fill-rule="nonzero" points="34.35,66.52 37.07,62.93 39.82,66.52 43.5,66.52 38.85,60.68 43.47,54.94 39.88,54.94 37.15,58.5 34.43,54.94 30.74,54.94 35.37,60.74 30.75,66.52 "/>
   <path fill="#2B6FB6" fill-rule="nonzero" d="M51.33 58.86c0,0.71 -0.46,1.29 -1.36,1.29l-3.27 0 0 -2.61 3.27 0c0.9,0 1.36,0.6 1.36,1.32zm-7.57 -3.92l0 0 0 11.57 2.94 0 0 -3.77 3.48 0c2.54,0 4.11,-1.67 4.11,-3.9 0,-2.31 -1.54,-3.9 -4.01,-3.9l-6.51 0z"/>
   <path fill="#2B6FB6" fill-rule="nonzero" d="M61.68 59.9l-3.19 0 0 -2.37 3.19 0c0.9,0 1.36,0.54 1.36,1.19 0,0.66 -0.46,1.17 -1.36,1.17zm4.31 -1.22l0 0c0,-2.21 -1.54,-3.74 -4.01,-3.74l-6.43 0 0 11.57 2.94 0 0 -4.1 1.14 0 3.46 4.1 3.62 0 -3.75 -4.22c1.89,-0.4 3.03,-1.82 3.03,-3.62z"/>
   <polygon fill="#2B6FB6" fill-rule="nonzero" points="76.61,57.54 76.61,54.94 67.18,54.94 67.18,66.52 76.61,66.52 76.61,63.92 70.12,63.92 70.12,61.95 76.45,61.95 76.45,59.42 70.12,59.42 70.12,57.54 "/>
   <path fill="#2B6FB6" fill-rule="nonzero" d="M83.93 63.92l-6 0 0 2.6 5.97 0c2.52,0 4.01,-1.52 4.01,-3.75 0,-2.1 -1.31,-3.33 -3.61,-3.33l-2.74 0c-0.61,0 -1.04,-0.38 -1.04,-0.96 0,-0.58 0.43,-0.94 1.04,-0.94l4.99 0 1.15 -2.6 -6.11 0c-2.52,0 -4.01,1.54 -4.01,3.64 0,2.18 1.41,3.44 3.61,3.44l2.74 0c0.61,0 1.04,0.38 1.04,0.96 0,0.58 -0.43,0.94 -1.04,0.94z"/>
   <path fill="#2B6FB6" fill-rule="nonzero" d="M92.16 57.54l4.99 0 1.15 -2.6 -6.11 0c-2.52,0 -4.01,1.54 -4.01,3.64 0,2.18 1.41,3.44 3.61,3.44l2.74 0c0.61,0 1.04,0.38 1.04,0.96 0,0.58 -0.43,0.94 -1.04,0.94l-6 0 0 2.6 5.97 0c2.52,0 4.01,-1.52 4.01,-3.75 0,-2.1 -1.32,-3.32 -3.61,-3.32l-2.74 0c-0.61,0 -1.04,-0.38 -1.04,-0.96 0,-0.58 0.43,-0.94 1.04,-0.94z"/>
   <path fill="#2B6FB6" fill-rule="nonzero" d="M57.56 40.42l0 0.17c0,3.55 2.05,5.7 5.37,5.7l0.24 0 1.2 -2.6 -0.95 0c-1.85,0 -2.94,-1.13 -2.94,-3.11l0 -0.17c0,-1.74 0.96,-3.03 2.89,-3.03l3.11 0 0 -2.68 -3.34 0c-3.64,0 -5.6,2.41 -5.6,5.7z"/>
  </g>
 </g>
</svg>
