<?xml version="1.0" encoding="UTF-8"?>
<!DOCTYPE svg PUBLIC "-//W3C//DTD SVG 1.1//EN" "http://www.w3.org/Graphics/SVG/1.1/DTD/svg11.dtd">
<!-- Creator: CorelDRAW -->
<svg xmlns="http://www.w3.org/2000/svg" xml:space="preserve" width="16.5706mm" height="10.4409mm" version="1.1" shape-rendering="geometricPrecision" text-rendering="geometricPrecision" image-rendering="optimizeQuality" fill-rule="evenodd" clip-rule="evenodd"
viewBox="0 0 37.56 23.66"
 xmlns:xlink="http://www.w3.org/1999/xlink"
 xmlns:xodm="http://www.corel.com/coreldraw/odm/2003">
 <g id="__x0023_Layer_x0020_1">
  <metadata id="CorelCorpID_0Corel-Layer"/>
  <path fill="none" fill-rule="nonzero" stroke="#006FCF" stroke-width="1.6" stroke-linecap="round" stroke-miterlimit="10" d="M18.78 19.6l-13.08 0m5.72 -3.27l14.71 0m0 5.72l0 -0.82m0.82 1.63c-0.45,0 -0.82,-0.37 -0.82,-0.82m6.54 0.82l-5.72 0m6.54 -0.82c0,0.45 -0.37,0.82 -0.82,0.82m0.82 -4.09l0 3.27m-1.63 -10.62l-1.63 1.63 -4.09 0m4.9 -6.54c0,0 -2.08,-4.46 -2.45,-4.9 -0.38,-0.45 -1.06,-0.82 -1.63,-0.82 -1.28,0 -14.61,0 -16.34,0 -0.57,0 -1.26,0.37 -1.63,0.82 -0.38,0.45 -2.45,4.9 -2.45,4.9m29.42 -1.63l-4.09 0 -1.63 2.45 -2.45 0.82 -8.99 0m17.98 -2.45c0,-0.45 -0.37,-0.82 -0.82,-0.82m0.82 2.45l0 -1.63m-0.82 2.45c0.45,0 0.82,-0.37 0.82,-0.82m-3.28 2.85l-0.81 -1.22 3.27 -0.82m-1.63 4.75c0,-0.97 -0.29,-1.91 -0.82,-2.72m0.82 6.96l0 -4.24m-2.45 6.69c1.35,0 2.45,-1.1 2.45,-2.45m-15.53 2.45l13.08 0m-20.43 2.45l0 -0.82m-0.82 1.63c0.45,0 0.82,-0.37 0.82,-0.82m-6.54 0.82l5.72 0m-6.54 -0.82c0,0.45 0.37,0.82 0.82,0.82m-0.82 -4.09l0 3.27m1.63 -10.62l1.63 1.63 4.09 0m-9.81 -8.17l4.09 0 1.63 2.45 2.45 0.82 8.99 0m-17.98 -2.45c0,-0.45 0.37,-0.82 0.82,-0.82m-0.82 2.45l0 -1.63m0.82 2.45c-0.45,0 -0.82,-0.37 -0.82,-0.82m3.28 2.85l0.81 -1.22 -3.27 -0.82m1.63 4.75c0,-0.97 0.29,-1.91 0.82,-2.72m-0.82 6.96l0 -4.24m2.45 6.69c-1.35,0 -2.45,-1.1 -2.45,-2.45"/>
 </g>
</svg>
