<?xml version="1.0" encoding="UTF-8"?>
<!DOCTYPE svg PUBLIC "-//W3C//DTD SVG 1.1//EN" "http://www.w3.org/Graphics/SVG/1.1/DTD/svg11.dtd">
<!-- Creator: CorelDRAW -->
<svg xmlns="http://www.w3.org/2000/svg" xml:space="preserve" width="17.8683mm" height="12.6762mm" version="1.1" shape-rendering="geometricPrecision" text-rendering="geometricPrecision" image-rendering="optimizeQuality" fill-rule="evenodd" clip-rule="evenodd"
viewBox="0 0 54.18 38.43"
 xmlns:xlink="http://www.w3.org/1999/xlink"
 xmlns:xodm="http://www.corel.com/coreldraw/odm/2003">
 <g id="__x0023_Layer_x0020_1">
  <metadata id="CorelCorpID_0Corel-Layer"/>
  <path fill="none" fill-rule="nonzero" stroke="#006FCF" stroke-width="2.14" stroke-linejoin="round" stroke-miterlimit="10" d="M32.69 21.49c5.82,0 12.4,0 15.88,0 2.44,0 4.54,-2.06 4.54,-3.4 0,-2.52 -5.91,-4.54 -10.21,-4.54 -5.1,0 -31.76,0 -31.76,0m17.01 -2.27l-11.34 -10.21 -2.27 1.13 5.67 9.07m14.75 7.94l-6.81 7.94 -11.34 10.21 -2.27 -1.13 5.67 -9.07 3.4 -7.94m-22.68 -10.21c0,0 3.47,6.17 5.67,9.07 -2.55,0 -2.69,3.4 0,3.4 0.29,0 15.88,0 15.88,0m-11.34 -7.94l-6.81 -5.67 -3.4 1.13"/>
 </g>
</svg>
