<?xml version="1.0" encoding="UTF-8"?>
<!DOCTYPE svg PUBLIC "-//W3C//DTD SVG 1.1//EN" "http://www.w3.org/Graphics/SVG/1.1/DTD/svg11.dtd">
<!-- Creator: CorelDRAW -->
<svg xmlns="http://www.w3.org/2000/svg" xml:space="preserve" width="15.4264mm" height="13.5609mm" version="1.1" shape-rendering="geometricPrecision" text-rendering="geometricPrecision" image-rendering="optimizeQuality" fill-rule="evenodd" clip-rule="evenodd"
viewBox="0 0 29.85 26.24"
 xmlns:xlink="http://www.w3.org/1999/xlink"
 xmlns:xodm="http://www.corel.com/coreldraw/odm/2003">
 <g id="__x0023_Layer_x0020_1">
  <metadata id="CorelCorpID_0Corel-Layer"/>
  <path fill="none" fill-rule="nonzero" stroke="#006FCF" stroke-width="1.37" stroke-linejoin="round" stroke-miterlimit="10" d="M9.33 6.28l0 -3.73 -3.73 0 0 7.46m-5.6 15.54l29.85 0m-4.35 -9.33l0 9.33 -12.44 0m-4.97 0l-4.35 0 0 -8.7m11.19 -16.17l-5.6 5.6 -3.73 3.73 -4.35 4.35 2.49 2.49 0.63 -0.63 10.56 -10.56 10.38 10.38 0.19 0.19 0.62 0.62 2.49 -2.49 -13.68 -13.68zm6.84 15.54l-6.22 0 0 4.97 3.41 0 2.81 0 0 -2.08 0 -2.9zm-8.7 0l-4.97 0 0 0.5 0 8.83 4.97 0 0 -8.97 0 -0.36z"/>
 </g>
</svg>
