<?xml version="1.0" encoding="UTF-8"?>
<!DOCTYPE svg PUBLIC "-//W3C//DTD SVG 1.1//EN" "http://www.w3.org/Graphics/SVG/1.1/DTD/svg11.dtd">
<!-- Creator: CorelDRAW -->
<svg xmlns="http://www.w3.org/2000/svg" xml:space="preserve" width="15.5223mm" height="15.5222mm" version="1.1" shape-rendering="geometricPrecision" text-rendering="geometricPrecision" image-rendering="optimizeQuality" fill-rule="evenodd" clip-rule="evenodd"
viewBox="0 0 48.46 48.46"
 xmlns:xlink="http://www.w3.org/1999/xlink"
 xmlns:xodm="http://www.corel.com/coreldraw/odm/2003">
 <g id="__x0023_Layer_x0020_1">
  <metadata id="CorelCorpID_0Corel-Layer"/>
  <g id="_2727543626336">
   <g>
    <path fill="none" fill-rule="nonzero" stroke="#CCCCCC" stroke-width="2.2" stroke-miterlimit="10" d="M47.36 24.23c0,12.77 -10.35,23.13 -23.13,23.13 -12.77,0 -23.13,-10.35 -23.13,-23.13 0,-12.77 10.35,-23.13 23.13,-23.13 12.77,0 23.13,10.35 23.13,23.13z"/>
   </g>
   <g>
    <g>
     <path fill="#D1D3D4" fill-rule="nonzero" d="M26.05 22.69l0 17.1 -5.33 0 0 -17.1 -2.94 0 0 -4.47 2.94 0 0 -1.6c0,-4.8 2.15,-7.21 6.44,-7.21 0.63,0 1.25,0.05 1.84,0.14 0.59,0.09 1.16,0.21 1.68,0.36l0 4.74c-0.72,-0.12 -1.31,-0.21 -1.77,-0.26 -0.46,-0.05 -0.86,-0.08 -1.21,-0.08 -0.59,0 -1.01,0.18 -1.27,0.53 -0.26,0.35 -0.38,0.96 -0.38,1.82l0 1.56 3.73 0 0 4.47 -3.73 0z"/>
    </g>
    <g>
     <path fill="#CCCCCC" fill-rule="nonzero" d="M26.05 22.32l0 17.1 -5.33 0 0 -17.1 -2.94 0 0 -4.47 2.94 0 0 -1.6c0,-4.8 2.15,-7.21 6.44,-7.21 0.63,0 1.25,0.04 1.84,0.14 0.59,0.09 1.16,0.21 1.68,0.36l0 4.74c-0.72,-0.12 -1.31,-0.21 -1.77,-0.26 -0.46,-0.05 -0.86,-0.08 -1.21,-0.08 -0.59,0 -1.01,0.18 -1.27,0.53 -0.26,0.35 -0.38,0.96 -0.38,1.82l0 1.56 3.73 0 0 4.47 -3.73 0z"/>
    </g>
   </g>
  </g>
 </g>
</svg>
