<?xml version="1.0" encoding="UTF-8"?>
<!DOCTYPE svg PUBLIC "-//W3C//DTD SVG 1.1//EN" "http://www.w3.org/Graphics/SVG/1.1/DTD/svg11.dtd">
<!-- Creator: CorelDRAW -->
<svg xmlns="http://www.w3.org/2000/svg" xml:space="preserve" width="14.6796mm" height="11.6417mm" version="1.1" shape-rendering="geometricPrecision" text-rendering="geometricPrecision" image-rendering="optimizeQuality" fill-rule="evenodd" clip-rule="evenodd"
viewBox="0 0 24.54 19.46"
 xmlns:xlink="http://www.w3.org/1999/xlink"
 xmlns:xodm="http://www.corel.com/coreldraw/odm/2003">
 <g id="__x0023_Layer_x0020_1">
  <metadata id="CorelCorpID_0Corel-Layer"/>
  <path fill="none" fill-rule="nonzero" stroke="#006FCF" stroke-width="1.18" stroke-miterlimit="10" d="M23.44 10.24l0 8.63 -22.34 0 0 -8.63m19.8 1.02l-2.54 0m5.59 -2.54c0,1.62 -1.35,2.54 -3.05,2.54m-20.31 -2.54l0 -5.59 23.36 0 0 5.59m-20.31 2.54c-1.7,0 -3.05,-0.92 -3.05,-2.54m5.59 2.54l-2.54 0m12.19 0l-7.11 0m0 -9.65l0 1.52m1.02 -2.54c-0.56,0 -1.02,0.45 -1.02,1.02m5.59 -1.02l-4.57 0m5.59 1.02c0,-0.56 -0.45,-1.02 -1.02,-1.02m1.02 2.54l0 -1.52m-6.6 11.68l-2.54 0 0 -3.05 2.54 0 0 3.05zm9.65 0l-2.54 0 0 -3.05 2.54 0 0 3.05z"/>
 </g>
</svg>
