<?xml version="1.0" encoding="UTF-8"?>
<!DOCTYPE svg PUBLIC "-//W3C//DTD SVG 1.1//EN" "http://www.w3.org/Graphics/SVG/1.1/DTD/svg11.dtd">
<!-- Creator: CorelDRAW -->
<svg xmlns="http://www.w3.org/2000/svg" xml:space="preserve" width="71.0735mm" height="10.0774mm" version="1.1" shape-rendering="geometricPrecision" text-rendering="geometricPrecision" image-rendering="optimizeQuality" fill-rule="evenodd" clip-rule="evenodd"
viewBox="0 0 607.48 86.13"
 xmlns:xlink="http://www.w3.org/1999/xlink"
 xmlns:xodm="http://www.corel.com/coreldraw/odm/2003">
 <g id="__x0023_Layer_x0020_1">
  <metadata id="CorelCorpID_0Corel-Layer"/>
  <g id="_2727543636320">
   <line fill="none" fill-rule="nonzero" stroke="#034692" stroke-width="3.39" stroke-miterlimit="10" x1="248.84" y1="18.25" x2="248.84" y2= "69.67" />
   <path fill="#034692" fill-rule="nonzero" d="M282.42 22.78l-2.01 1.64c-0.58,-1.28 -1.28,-2.19 -2.09,-2.73 -0.81,-0.54 -1.91,-0.8 -3.31,-0.8 -1.48,0 -2.64,0.31 -3.49,0.92 -0.85,0.61 -1.27,1.4 -1.27,2.35 0,0.62 0.16,1.14 0.5,1.55 0.33,0.41 0.88,0.76 1.65,1.06 0.77,0.3 1.83,0.57 3.2,0.8 2.55,0.43 4.35,1.07 5.41,1.92 1.06,0.86 1.59,2.04 1.59,3.56 0,1.09 -0.31,2.05 -0.92,2.87 -0.61,0.83 -1.48,1.47 -2.61,1.93 -1.13,0.46 -2.43,0.69 -3.91,0.69 -1.95,0 -3.61,-0.38 -4.98,-1.14 -1.37,-0.76 -2.42,-1.77 -3.14,-3.03l2.01 -1.64c0.52,1.15 1.3,2.04 2.32,2.67 1.02,0.63 2.3,0.95 3.84,0.95 1.52,0 2.72,-0.28 3.62,-0.83 0.9,-0.56 1.34,-1.34 1.34,-2.35 0,-0.85 -0.39,-1.54 -1.17,-2.04 -0.78,-0.51 -2.16,-0.93 -4.14,-1.28 -2.57,-0.45 -4.39,-1.09 -5.46,-1.93 -1.07,-0.84 -1.61,-2 -1.61,-3.5 0,-1.03 0.29,-1.98 0.88,-2.86 0.58,-0.88 1.42,-1.57 2.51,-2.09 1.09,-0.52 2.35,-0.77 3.79,-0.77 3.45,0 5.92,1.36 7.44,4.09z"/>
   <path fill="#034692" fill-rule="nonzero" d="M302.56 31.07c0,2.47 -0.65,4.33 -1.94,5.59 -1.29,1.26 -3.17,1.88 -5.62,1.88 -2.45,0 -4.32,-0.63 -5.62,-1.9 -1.29,-1.26 -1.94,-3.12 -1.94,-5.57l0 -12.08 2.34 0 0 11.5c0,2.02 0.42,3.51 1.27,4.45 0.85,0.94 2.16,1.42 3.95,1.42 1.79,0 3.11,-0.47 3.95,-1.42 0.85,-0.94 1.27,-2.43 1.27,-4.45l0 -11.5 2.34 0 0 12.08z"/>
   <path fill="#034692" fill-rule="nonzero" d="M320.3 20.58c1.19,1.06 1.78,2.49 1.78,4.28 0,1.79 -0.6,3.22 -1.78,4.28 -1.19,1.06 -2.75,1.59 -4.7,1.59l-4.46 0 0 7.53 -2.33 0 0 -19.26 6.8 0c1.95,0 3.51,0.53 4.7,1.59zm-1.74 7.03l0 0c0.71,-0.61 1.06,-1.53 1.06,-2.76 0,-1.23 -0.35,-2.14 -1.06,-2.76 -0.71,-0.61 -1.81,-0.92 -3.31,-0.92l-4.12 0 0 7.35 4.12 0c1.5,0 2.6,-0.31 3.31,-0.92z"/>
   <polygon fill="#034692" fill-rule="nonzero" points="340.7,36.06 340.7,38.25 326.75,38.25 326.75,18.99 340.26,18.99 340.26,21.17 329.09,21.17 329.09,27.39 337.78,27.39 337.78,29.58 329.09,29.58 329.09,36.06 "/>
   <path fill="#034692" fill-rule="nonzero" d="M352.46 30.25l-4.61 0 0 8 -2.33 0 0 -19.26 7.3 0c1.96,0 3.54,0.51 4.73,1.52 1.19,1.01 1.78,2.38 1.78,4.11 0,1.36 -0.38,2.51 -1.14,3.45 -0.76,0.93 -1.8,1.58 -3.12,1.93l5.43 8.26 -2.77 0 -5.25 -8zm-4.61 -2.19l0 0 4.93 0c2.72,0 4.09,-1.15 4.09,-3.45 0,-2.29 -1.36,-3.44 -4.09,-3.44l-4.93 0 0 6.89z"/>
   <polygon fill="#034692" fill-rule="nonzero" points="367.41,38.25 365.07,38.25 365.07,18.99 367.41,18.99 "/>
   <polygon fill="#034692" fill-rule="nonzero" points="388.97,38.25 386.08,38.25 378.03,25.35 375.98,21.55 375.96,21.55 376.07,24.65 376.07,38.25 373.86,38.25 373.86,18.99 376.74,18.99 384.77,31.83 386.84,35.68 386.87,35.68 386.76,32.59 386.76,18.99 388.97,18.99 "/>
   <polygon fill="#034692" fill-rule="nonzero" points="408.96,21.17 402.25,21.17 402.25,38.25 399.92,38.25 399.92,21.17 393.2,21.17 393.2,18.99 408.96,18.99 "/>
   <polygon fill="#034692" fill-rule="nonzero" points="427.15,36.06 427.15,38.25 413.2,38.25 413.2,18.99 426.71,18.99 426.71,21.17 415.53,21.17 415.53,27.39 424.23,27.39 424.23,29.58 415.53,29.58 415.53,36.06 "/>
   <polygon fill="#034692" fill-rule="nonzero" points="447.08,38.25 444.19,38.25 436.14,25.35 434.09,21.55 434.06,21.55 434.18,24.65 434.18,38.25 431.96,38.25 431.96,18.99 434.85,18.99 442.88,31.83 444.95,35.68 444.98,35.68 444.86,32.59 444.86,18.99 447.08,18.99 "/>
   <path fill="#034692" fill-rule="nonzero" d="M466.87 21.5c1.71,1.67 2.57,4.05 2.57,7.12 0,3.07 -0.86,5.45 -2.57,7.12 -1.71,1.67 -4.09,2.51 -7.12,2.51l-6.22 0 0 -19.26 6.22 0c3.04,0 5.41,0.84 7.12,2.51zm-1.74 12.59l0 0c1.23,-1.31 1.85,-3.14 1.85,-5.47 0,-2.34 -0.62,-4.16 -1.85,-5.47 -1.24,-1.31 -2.95,-1.97 -5.15,-1.97l-4.12 0 0 14.88 4.12 0c2.2,0 3.92,-0.66 5.15,-1.97z"/>
   <polygon fill="#034692" fill-rule="nonzero" points="488.67,36.06 488.67,38.25 474.72,38.25 474.72,18.99 488.23,18.99 488.23,21.17 477.05,21.17 477.05,27.39 485.75,27.39 485.75,29.58 477.05,29.58 477.05,36.06 "/>
   <polygon fill="#034692" fill-rule="nonzero" points="508.6,38.25 505.71,38.25 497.66,25.35 495.61,21.55 495.58,21.55 495.7,24.65 495.7,38.25 493.48,38.25 493.48,18.99 496.37,18.99 504.4,31.83 506.47,35.68 506.5,35.68 506.39,32.59 506.39,18.99 508.6,18.99 "/>
   <path fill="#034692" fill-rule="nonzero" d="M527.6 37.15c-1.38,0.92 -2.98,1.39 -4.79,1.39 -1.81,0 -3.39,-0.4 -4.73,-1.21 -1.34,-0.81 -2.38,-1.96 -3.11,-3.44 -0.73,-1.49 -1.09,-3.25 -1.09,-5.27 0,-2 0.37,-3.75 1.09,-5.25 0.73,-1.5 1.76,-2.65 3.11,-3.46 1.34,-0.81 2.9,-1.21 4.67,-1.21 1.85,0 3.4,0.38 4.65,1.14 1.26,0.76 2.19,1.88 2.82,3.36l-2.31 1.08c-0.43,-1.13 -1.05,-1.97 -1.87,-2.54 -0.82,-0.56 -1.86,-0.85 -3.12,-0.85 -1.32,0 -2.48,0.31 -3.47,0.92 -0.99,0.61 -1.76,1.5 -2.31,2.67 -0.54,1.17 -0.82,2.55 -0.82,4.14 0,2.41 0.58,4.3 1.73,5.68 1.16,1.37 2.74,2.06 4.74,2.06 1.3,0 2.43,-0.33 3.39,-0.99 0.95,-0.66 1.63,-1.63 2.04,-2.92l2.34 0.87c-0.61,1.64 -1.6,2.91 -2.98,3.84z"/>
   <polygon fill="#034692" fill-rule="nonzero" points="537.55,38.25 535.22,38.25 535.22,18.99 537.55,18.99 "/>
   <path fill="#034692" fill-rule="nonzero" d="M554.83 32.91l-8.73 0 -2.04 5.34 -2.45 0 7.5 -19.26 2.77 0 7.47 19.26 -2.48 0 -2.04 -5.34zm-0.85 -2.19l0 0 -2.6 -6.83 -0.9 -2.68 -0.06 0 -0.85 2.6 -2.63 6.92 7.03 0z"/>
   <path fill="#034692" fill-rule="nonzero" d="M585.68 21.5c1.71,1.67 2.57,4.05 2.57,7.12 0,3.07 -0.86,5.45 -2.57,7.12 -1.71,1.67 -4.09,2.51 -7.12,2.51l-6.22 0 0 -19.26 6.22 0c3.04,0 5.41,0.84 7.12,2.51zm-1.74 12.59l0 0c1.23,-1.31 1.85,-3.14 1.85,-5.47 0,-2.34 -0.62,-4.16 -1.85,-5.47 -1.24,-1.31 -2.95,-1.97 -5.15,-1.97l-4.12 0 0 14.88 4.12 0c2.2,0 3.92,-0.66 5.15,-1.97z"/>
   <polygon fill="#034692" fill-rule="nonzero" points="607.48,36.06 607.48,38.25 593.53,38.25 593.53,18.99 607.04,18.99 607.04,21.17 595.86,21.17 595.86,27.39 604.56,27.39 604.56,29.58 595.86,29.58 595.86,36.06 "/>
   <path fill="#034692" fill-rule="nonzero" d="M282.42 53.91l-2.01 1.63c-0.58,-1.28 -1.28,-2.19 -2.09,-2.73 -0.81,-0.53 -1.91,-0.8 -3.31,-0.8 -1.48,0 -2.64,0.31 -3.49,0.92 -0.85,0.61 -1.27,1.4 -1.27,2.35 0,0.62 0.16,1.14 0.5,1.55 0.33,0.41 0.88,0.76 1.65,1.06 0.77,0.3 1.83,0.57 3.2,0.8 2.55,0.43 4.35,1.07 5.41,1.92 1.06,0.86 1.59,2.04 1.59,3.56 0,1.09 -0.31,2.05 -0.92,2.88 -0.61,0.83 -1.48,1.47 -2.61,1.93 -1.13,0.46 -2.43,0.69 -3.91,0.69 -1.95,0 -3.61,-0.38 -4.98,-1.14 -1.37,-0.76 -2.42,-1.77 -3.14,-3.03l2.01 -1.64c0.52,1.15 1.3,2.04 2.32,2.67 1.02,0.63 2.3,0.95 3.84,0.95 1.52,0 2.72,-0.28 3.62,-0.83 0.9,-0.55 1.34,-1.34 1.34,-2.35 0,-0.85 -0.39,-1.54 -1.17,-2.04 -0.78,-0.51 -2.16,-0.93 -4.14,-1.28 -2.57,-0.45 -4.39,-1.09 -5.46,-1.93 -1.07,-0.84 -1.61,-2 -1.61,-3.5 0,-1.03 0.29,-1.98 0.88,-2.86 0.58,-0.88 1.42,-1.57 2.51,-2.09 1.09,-0.52 2.35,-0.77 3.79,-0.77 3.45,0 5.92,1.36 7.44,4.09z"/>
   <polygon fill="#034692" fill-rule="nonzero" points="300.87,67.19 300.87,69.38 286.92,69.38 286.92,50.12 300.43,50.12 300.43,52.31 289.25,52.31 289.25,58.52 297.95,58.52 297.95,60.71 289.25,60.71 289.25,67.19 "/>
   <path fill="#034692" fill-rule="nonzero" d="M320.19 59.66l0 9.72 -1.75 0 -0.09 -2.6c-0.57,0.93 -1.36,1.65 -2.38,2.14 -1.02,0.5 -2.25,0.74 -3.69,0.74 -1.81,0 -3.39,-0.41 -4.73,-1.21 -1.34,-0.81 -2.38,-1.95 -3.11,-3.44 -0.73,-1.49 -1.09,-3.25 -1.09,-5.27 0,-2.01 0.37,-3.76 1.12,-5.25 0.75,-1.5 1.8,-2.65 3.15,-3.46 1.35,-0.81 2.92,-1.21 4.71,-1.21 1.91,0 3.48,0.36 4.71,1.08 1.23,0.72 2.23,1.83 2.99,3.33l-2.13 1.17c-0.43,-1.09 -1.12,-1.93 -2.09,-2.51 -0.96,-0.58 -2.13,-0.88 -3.49,-0.88 -1.31,0 -2.45,0.31 -3.43,0.94 -0.98,0.62 -1.75,1.51 -2.29,2.67 -0.55,1.16 -0.82,2.54 -0.82,4.13 0,2.45 0.56,4.35 1.69,5.7 1.13,1.35 2.75,2.03 4.88,2.03 1.67,0 3.04,-0.43 4.1,-1.28 1.06,-0.86 1.59,-2.08 1.59,-3.68l0 -0.67 -6.13 0 0 -2.19 8.26 0z"/>
   <path fill="#034692" fill-rule="nonzero" d="M339.97 62.2c0,2.47 -0.65,4.33 -1.94,5.59 -1.29,1.26 -3.17,1.88 -5.62,1.88 -2.45,0 -4.32,-0.63 -5.62,-1.9 -1.29,-1.26 -1.94,-3.12 -1.94,-5.57l0 -12.08 2.33 0 0 11.5c0,2.02 0.42,3.51 1.27,4.45 0.85,0.94 2.16,1.42 3.95,1.42 1.79,0 3.11,-0.47 3.95,-1.42 0.85,-0.94 1.27,-2.43 1.27,-4.45l0 -11.5 2.34 0 0 12.08z"/>
   <path fill="#034692" fill-rule="nonzero" d="M352.44 61.38l-4.61 0 0 8 -2.33 0 0 -19.26 7.3 0c1.97,0 3.54,0.51 4.73,1.52 1.19,1.01 1.78,2.38 1.78,4.11 0,1.36 -0.38,2.51 -1.14,3.44 -0.76,0.93 -1.8,1.58 -3.12,1.93l5.43 8.26 -2.77 0 -5.25 -8zm-4.61 -2.19l0 0 4.93 0c2.72,0 4.09,-1.15 4.09,-3.44 0,-2.29 -1.36,-3.44 -4.09,-3.44l-4.93 0 0 6.89z"/>
   <path fill="#034692" fill-rule="nonzero" d="M376.63 51.04c1.34,0.81 2.38,1.96 3.11,3.44 0.73,1.49 1.09,3.25 1.09,5.27 0,2.02 -0.36,3.78 -1.09,5.27 -0.73,1.49 -1.77,2.64 -3.11,3.44 -1.34,0.81 -2.92,1.21 -4.73,1.21 -1.81,0 -3.39,-0.4 -4.73,-1.21 -1.34,-0.81 -2.38,-1.95 -3.11,-3.44 -0.73,-1.49 -1.09,-3.25 -1.09,-5.27 0,-2.02 0.37,-3.78 1.09,-5.27 0.73,-1.49 1.76,-2.64 3.11,-3.44 1.34,-0.81 2.92,-1.21 4.73,-1.21 1.81,0 3.38,0.4 4.73,1.21zm-9.47 3.03l0 0c-1.16,1.37 -1.74,3.26 -1.74,5.68 0,2.41 0.58,4.3 1.74,5.68 1.16,1.37 2.74,2.06 4.74,2.06 2,0 3.58,-0.69 4.74,-2.06 1.16,-1.37 1.74,-3.26 1.74,-5.68 0,-2.41 -0.58,-4.31 -1.74,-5.68 -1.16,-1.37 -2.74,-2.06 -4.74,-2.06 -2.01,0 -3.59,0.69 -4.74,2.06z"/>
   <path fill="#034692" fill-rule="nonzero" d="M399.01 53.91l-2.01 1.63c-0.58,-1.28 -1.28,-2.19 -2.09,-2.73 -0.81,-0.53 -1.91,-0.8 -3.31,-0.8 -1.48,0 -2.64,0.31 -3.49,0.92 -0.85,0.61 -1.27,1.4 -1.27,2.35 0,0.62 0.16,1.14 0.5,1.55 0.33,0.41 0.88,0.76 1.65,1.06 0.77,0.3 1.83,0.57 3.19,0.8 2.55,0.43 4.36,1.07 5.41,1.92 1.06,0.86 1.59,2.04 1.59,3.56 0,1.09 -0.31,2.05 -0.92,2.88 -0.61,0.83 -1.48,1.47 -2.61,1.93 -1.13,0.46 -2.43,0.69 -3.91,0.69 -1.95,0 -3.61,-0.38 -4.98,-1.14 -1.37,-0.76 -2.42,-1.77 -3.14,-3.03l2.01 -1.64c0.53,1.15 1.3,2.04 2.32,2.67 1.02,0.63 2.3,0.95 3.84,0.95 1.52,0 2.72,-0.28 3.62,-0.83 0.9,-0.55 1.34,-1.34 1.34,-2.35 0,-0.85 -0.39,-1.54 -1.17,-2.04 -0.78,-0.51 -2.16,-0.93 -4.14,-1.28 -2.57,-0.45 -4.39,-1.09 -5.46,-1.93 -1.07,-0.84 -1.61,-2 -1.61,-3.5 0,-1.03 0.29,-1.98 0.88,-2.86 0.58,-0.88 1.42,-1.57 2.51,-2.09 1.09,-0.52 2.35,-0.77 3.79,-0.77 3.45,0 5.92,1.36 7.44,4.09z"/>
   <path fill="#034692" fill-rule="nonzero" d="M426.21 52.63c1.71,1.67 2.57,4.05 2.57,7.12 0,3.07 -0.86,5.45 -2.57,7.12 -1.71,1.67 -4.09,2.51 -7.12,2.51l-6.22 0 0 -19.26 6.22 0c3.04,0 5.41,0.84 7.12,2.51zm-1.74 12.59l0 0c1.23,-1.31 1.85,-3.14 1.85,-5.47 0,-2.34 -0.62,-4.16 -1.85,-5.47 -1.24,-1.31 -2.95,-1.97 -5.15,-1.97l-4.12 0 0 14.88 4.12 0c2.2,0 3.92,-0.66 5.15,-1.97z"/>
   <polygon fill="#034692" fill-rule="nonzero" points="447.29,67.19 447.29,69.38 433.34,69.38 433.34,50.12 446.85,50.12 446.85,52.31 435.67,52.31 435.67,58.52 444.37,58.52 444.37,60.71 435.67,60.71 435.67,67.19 "/>
   <polygon fill="#034692" fill-rule="nonzero" points="474.1,67.19 474.1,69.38 460.74,69.38 460.74,50.12 463.07,50.12 463.07,67.19 "/>
   <path fill="#034692" fill-rule="nonzero" d="M488.43 64.04l-8.72 0 -2.04 5.34 -2.45 0 7.5 -19.26 2.77 0 7.47 19.26 -2.48 0 -2.04 -5.34zm-0.85 -2.19l0 0 -2.6 -6.83 -0.9 -2.68 -0.06 0 -0.85 2.6 -2.63 6.92 7.03 0z"/>
   <polygon fill="#034692" fill-rule="nonzero" points="519.6,69.38 516.71,69.38 508.66,56.48 506.62,52.68 506.59,52.68 506.7,55.78 506.7,69.38 504.49,69.38 504.49,50.12 507.38,50.12 515.4,62.96 517.48,66.81 517.5,66.81 517.39,63.72 517.39,50.12 519.6,50.12 "/>
   <path fill="#034692" fill-rule="nonzero" d="M536.15 64.04l-8.73 0 -2.04 5.34 -2.45 0 7.5 -19.26 2.77 0 7.47 19.26 -2.48 0 -2.04 -5.34zm-0.85 -2.19l0 0 -2.6 -6.83 -0.9 -2.68 -0.06 0 -0.85 2.6 -2.63 6.92 7.03 0z"/>
   <path fill="#034692" fill-rule="nonzero" d="M555.91 68.28c-1.38,0.92 -2.98,1.39 -4.79,1.39 -1.81,0 -3.39,-0.4 -4.73,-1.21 -1.34,-0.81 -2.38,-1.96 -3.11,-3.44 -0.73,-1.49 -1.1,-3.25 -1.1,-5.27 0,-2 0.37,-3.76 1.1,-5.25 0.73,-1.5 1.76,-2.65 3.11,-3.46 1.34,-0.81 2.9,-1.21 4.67,-1.21 1.85,0 3.4,0.38 4.65,1.14 1.26,0.76 2.19,1.88 2.82,3.36l-2.31 1.08c-0.43,-1.13 -1.05,-1.97 -1.87,-2.54 -0.82,-0.56 -1.86,-0.85 -3.12,-0.85 -1.32,0 -2.48,0.31 -3.47,0.92 -0.99,0.61 -1.76,1.5 -2.31,2.67 -0.54,1.17 -0.82,2.55 -0.82,4.14 0,2.41 0.58,4.3 1.73,5.68 1.16,1.37 2.74,2.06 4.74,2.06 1.3,0 2.43,-0.33 3.39,-0.99 0.95,-0.66 1.63,-1.64 2.04,-2.92l2.34 0.88c-0.61,1.63 -1.6,2.91 -2.98,3.84z"/>
   <polygon fill="#034692" fill-rule="nonzero" points="565.13,69.38 562.8,69.38 562.8,50.12 565.13,50.12 "/>
   <path fill="#034692" fill-rule="nonzero" d="M583.34 51.04c1.34,0.81 2.38,1.95 3.11,3.44 0.73,1.49 1.09,3.25 1.09,5.27 0,2.02 -0.36,3.78 -1.09,5.27 -0.73,1.49 -1.77,2.64 -3.11,3.44 -1.34,0.81 -2.92,1.21 -4.73,1.21 -1.81,0 -3.39,-0.41 -4.73,-1.21 -1.34,-0.81 -2.38,-1.96 -3.11,-3.44 -0.73,-1.49 -1.09,-3.25 -1.09,-5.27 0,-2.02 0.36,-3.78 1.09,-5.27 0.73,-1.49 1.76,-2.64 3.11,-3.44 1.34,-0.81 2.92,-1.21 4.73,-1.21 1.81,0 3.39,0.4 4.73,1.21zm-9.47 3.03l0 0c-1.16,1.37 -1.74,3.26 -1.74,5.68 0,2.41 0.58,4.3 1.74,5.68 1.16,1.37 2.74,2.06 4.74,2.06 2,0 3.58,-0.69 4.74,-2.06 1.16,-1.37 1.74,-3.26 1.74,-5.68 0,-2.41 -0.58,-4.31 -1.74,-5.68 -1.16,-1.37 -2.74,-2.06 -4.74,-2.06 -2,0 -3.59,0.69 -4.74,2.06zm7.93 -10.7l0 0 -2.51 4.32 -1.9 0 1.66 -4.32 2.75 0z"/>
   <polygon fill="#034692" fill-rule="nonzero" points="607.22,69.38 604.33,69.38 596.27,56.48 594.23,52.68 594.2,52.68 594.32,55.78 594.32,69.38 592.1,69.38 592.1,50.12 594.99,50.12 603.01,62.96 605.09,66.81 605.12,66.81 605,63.72 605,50.12 607.22,50.12 "/>
   <path fill="#034692" fill-rule="nonzero" d="M138.28 48.17c-1.23,-1.87 -3.19,-3.44 -5.89,-4.69 -2.69,-1.26 -6.32,-2.3 -10.89,-3.12 -4.88,-0.87 -8.26,-1.91 -10.16,-3.12 -1.9,-1.2 -2.85,-2.83 -2.85,-4.89 0,-1.14 0.27,-2.17 0.79,-3.1 0,0 0.05,-0.09 0.08,-0.13 0.48,-0.81 0.77,-1.21 2.04,-2.24 1.26,-1.02 4.28,-2.06 8.9,-2.06 9.69,0 12.99,7.15 12.99,7.15l6.06 -3.68c-1.7,-4.09 -7.84,-10.57 -19.05,-10.57 -4.79,0 -8.52,0.79 -11.21,2.07 -2.06,0.96 -3.62,1.95 -4.98,3.26 -2.21,2.11 -3.07,4.19 -3.3,4.86 -0.68,1.65 -1.02,3.41 -1.02,5.28 0,2.72 0.63,5.03 1.89,6.93 1.26,1.9 3.27,3.49 6.04,4.77 2.77,1.28 6.49,2.36 11.16,3.23 4.67,0.87 7.94,1.87 9.81,3 1.87,1.13 2.81,2.62 2.81,4.46 0,1.07 -0.23,2.03 -0.68,2.87 0,0 -0.06,0.1 -0.14,0.26 -0.52,0.86 -1.28,1.6 -2.29,2.21 -0.19,0.11 -0.4,0.22 -0.6,0.33 -1.46,0.7 -3.62,1.31 -6.81,1.53 -0.38,0.02 -1.17,0.06 -1.17,0.06 -0.48,0.02 -0.97,0.03 -1.49,0.03 -9.69,0 -11.86,-5.1 -13.5,-7.64 -1.78,0.95 -6.06,3.67 -6.06,3.67 3.02,5.42 8.14,11.05 19.56,11.05l1.57 0c4,0 7.53,-0.6 10.58,-1.81 2.34,-0.93 4.28,-2.17 5.83,-3.71 1.72,-1.66 2.51,-3.27 2.84,-4.17 0.66,-1.58 0.99,-3.3 0.99,-5.17 0,-2.77 -0.62,-5.09 -1.85,-6.97z"/>
   <path fill="#034692" fill-rule="nonzero" d="M182.86 48.17c-1.23,-1.87 -3.19,-3.44 -5.89,-4.69 -2.69,-1.26 -6.32,-2.3 -10.89,-3.12 -4.88,-0.87 -8.26,-1.91 -10.16,-3.12 -1.9,-1.2 -2.85,-2.83 -2.85,-4.89 0,-1.14 0.27,-2.17 0.79,-3.1 0,0 0.05,-0.09 0.08,-0.13 0.48,-0.81 0.78,-1.21 2.04,-2.24 1.26,-1.02 4.28,-2.06 8.9,-2.06 9.69,0 12.99,7.15 12.99,7.15l6.06 -3.68c-1.7,-4.09 -7.84,-10.57 -19.05,-10.57 -4.79,0 -8.52,0.79 -11.21,2.07 -2.05,0.96 -3.62,1.95 -4.98,3.26 -2.21,2.11 -3.07,4.19 -3.3,4.86 -0.68,1.65 -1.02,3.41 -1.02,5.28 0,2.72 0.63,5.03 1.89,6.93 1.26,1.9 3.27,3.49 6.04,4.77 2.77,1.28 6.49,2.36 11.16,3.23 4.67,0.87 7.94,1.87 9.81,3 1.87,1.13 2.81,2.62 2.81,4.46 0,1.07 -0.23,2.03 -0.68,2.87 0,0 -0.07,0.1 -0.14,0.26 -0.52,0.86 -1.28,1.6 -2.29,2.21 -0.19,0.11 -0.4,0.22 -0.6,0.33 -1.46,0.7 -3.62,1.31 -6.81,1.53 -0.38,0.02 -1.17,0.06 -1.17,0.06 -0.48,0.02 -0.97,0.03 -1.49,0.03 -9.69,0 -11.86,-5.1 -13.5,-7.64 -1.78,0.95 -6.06,3.67 -6.06,3.67 3.02,5.42 8.14,11.05 19.56,11.05l1.57 0c4,0 7.53,-0.6 10.58,-1.81 2.34,-0.93 4.28,-2.17 5.83,-3.71 1.72,-1.66 2.51,-3.27 2.84,-4.17 0.66,-1.58 0.99,-3.3 0.99,-5.17 0,-2.77 -0.62,-5.09 -1.85,-6.97z"/>
   <polygon fill="#034692" fill-rule="nonzero" points="223.02,18.43 223.02,51.21 223.33,59.83 223.25,59.83 218.25,50.37 198.7,18.43 189,18.43 189,69.22 196.54,69.22 196.54,36.44 196.24,27.82 196.31,27.82 201.24,37.21 220.86,69.22 230.64,69.22 230.64,18.43 "/>
   <path fill="#034692" fill-rule="nonzero" d="M43.07 0c-23.79,0 -43.07,19.28 -43.07,43.07 0,23.79 19.28,43.07 43.07,43.07 23.79,0 43.07,-19.28 43.07,-43.07 0,-23.79 -19.28,-43.07 -43.07,-43.07zm0 81.78l0 0c-21.38,0 -38.71,-17.33 -38.71,-38.71 0,-21.38 17.33,-38.71 38.71,-38.71 21.38,0 38.71,17.33 38.71,38.71 0,21.38 -17.33,38.71 -38.71,38.71z"/>
   <path fill="#034692" fill-rule="nonzero" d="M17.31 63.47c2.1,2.65 4.6,4.98 7.42,6.88 5.01,-1.66 11.06,-2.75 18.34,-2.75 7.27,0 13.32,1.09 18.33,2.75 2.82,-1.9 5.32,-4.22 7.42,-6.88 -5.96,-5.33 -14.28,-9.47 -25.75,-9.47 -11.48,0 -19.8,4.14 -25.76,9.47z"/>
   <path fill="#034692" fill-rule="nonzero" d="M71.73 59.13c1.96,-3.48 3.29,-7.35 3.87,-11.47 -5.49,-7.19 -15.23,-13.45 -32.53,-13.45 -17.31,0 -27.06,6.26 -32.54,13.45 0.58,4.12 1.92,8 3.88,11.48 7.07,-4.98 17.09,-10.05 28.69,-10.05 11.59,0 21.59,5.05 28.64,10.04z"/>
   <path fill="#00ADED" fill-rule="nonzero" d="M75.83 40.58c-0.32,-4.3 -1.47,-8.37 -3.29,-12.05 -6.01,-7.3 -15.31,-13.71 -29.47,-13.71 -14.17,0 -23.47,6.42 -29.48,13.72 -1.82,3.68 -2.96,7.74 -3.28,12.04 5.88,-5.42 16.12,-11.35 32.76,-11.35 16.64,0 26.87,5.93 32.76,11.35z"/>
  </g>
 </g>
</svg>
