<?xml version="1.0" encoding="UTF-8"?>
<!DOCTYPE svg PUBLIC "-//W3C//DTD SVG 1.1//EN" "http://www.w3.org/Graphics/SVG/1.1/DTD/svg11.dtd">
<!-- Creator: CorelDRAW -->
<svg xmlns="http://www.w3.org/2000/svg" xml:space="preserve" width="103.228mm" height="12.53mm" version="1.1" shape-rendering="geometricPrecision" text-rendering="geometricPrecision" image-rendering="optimizeQuality" fill-rule="evenodd" clip-rule="evenodd"
viewBox="0 0 1866.54 226.56"
 xmlns:xlink="http://www.w3.org/1999/xlink"
 xmlns:xodm="http://www.corel.com/coreldraw/odm/2003">
 <g id="__x0023_Layer_x0020_1">
  <metadata id="CorelCorpID_0Corel-Layer"/>
  <g id="_2726976714768">
   <g>
    <path fill="#1D2155" fill-rule="nonzero" d="M1815.27 114.87l2.38 -1.19c1.19,3.58 4.37,5.57 7.95,5.57 3.98,0 6.76,-1.59 6.76,-4.37 0,-3.58 -2.78,-4.37 -6.76,-5.57 -4.77,-1.19 -9.14,-1.99 -9.14,-7.95 0,-4.37 3.58,-6.76 8.74,-6.76 3.97,-0.4 7.95,1.99 9.54,5.96l-2.38 1.19c-1.19,-2.78 -3.98,-4.77 -7.15,-4.37 -3.58,0 -5.96,1.59 -5.96,3.97 0,3.58 3.18,4.37 7.15,5.57 3.97,1.19 8.74,1.99 8.74,7.95 0,4.77 -3.98,7.15 -9.54,7.15 -4.37,0 -8.74,-2.78 -10.33,-7.15z"/>
    <path fill="#1D2155" fill-rule="nonzero" d="M1841.1 121.23l0 -25.84 3.97 0 8.74 22.26 8.74 -22.26 3.98 0 0 25.84 -3.18 0 0 -21.46c-0.4,1.19 -0.8,3.18 -1.59,4.77 0,0.4 -6.76,16.3 -6.76,17.09l-2.78 0c0,-0.8 -6.76,-16.69 -6.76,-17.09 -0.8,-1.99 -1.19,-3.18 -1.59,-4.77l0 21.86 -2.78 -0.4z"/>
   </g>
   <g>
    <polygon fill="#1D2155" fill-rule="nonzero" points="0.4,98.97 23.05,98.97 54.45,147.47 54.85,147.47 54.85,98.97 76.32,98.97 76.32,185.23 54.85,185.23 21.86,137.13 21.46,137.13 21.46,185.23 -0,185.23 "/>
    <path fill="#1D2155" fill-rule="nonzero" d="M88.24 142.3c0,-31.4 21.46,-44.91 42.13,-44.91 20.67,0 42.13,13.12 42.13,44.91 0,31.8 -21.46,44.92 -42.13,44.92 -20.27,-0.4 -42.13,-13.52 -42.13,-44.92zm61.61 0l0 0c0,-15.9 -6.76,-25.44 -19.08,-25.44 -12.32,0 -19.08,9.54 -19.08,25.44 0,15.9 6.76,26.23 19.08,26.23 12.32,-0.4 19.08,-10.34 19.08,-26.23z"/>
   </g>
   <g>
    <path fill="#1D2155" fill-rule="nonzero" d="M1279.87 164.16l17.09 -10.73c5.17,8.34 13.51,12.72 22.65,12.72 7.15,0 12.32,-1.99 12.32,-7.55 0,-5.57 -6.76,-7.55 -15.11,-9.54 -13.91,-3.58 -32.59,-7.15 -32.59,-26.63 0,-17.49 13.12,-27.43 32.59,-27.43 18.28,0 29.02,8.35 35.77,16.69l-15.5 12.72c-4.77,-5.57 -13.12,-10.73 -20.67,-10.73 -6.76,0 -9.94,1.99 -9.94,6.36 0,5.57 6.76,7.95 15.1,9.94 13.91,3.18 32.99,7.95 32.99,27.03 0,13.91 -9.54,27.43 -36.17,27.43 -19.87,0.4 -31.4,-8.35 -38.55,-20.27z"/>
    <polygon fill="#1D2155" fill-rule="nonzero" points="1367.31,97.38 1390.76,97.38 1390.76,183.24 1367.31,183.24 "/>
    <polygon fill="#1D2155" fill-rule="nonzero" points="1407.46,97.38 1430.11,97.38 1461.51,145.48 1461.91,145.48 1461.91,97.38 1482.98,97.38 1482.98,183.24 1461.51,183.24 1428.52,135.14 1428.13,135.14 1428.13,183.24 1407.46,183.24 "/>
    <polygon fill="#1D2155" fill-rule="nonzero" points="1532.66,97.38 1593.87,97.38 1593.87,116.46 1555.72,116.46 1555.72,130.37 1583.14,130.37 1583.14,148.26 1555.72,148.26 1555.72,164.16 1595.86,164.16 1595.86,182.84 1532.27,182.84 1532.27,97.38 "/>
    <polygon fill="#1D2155" fill-rule="nonzero" points="1607.39,97.38 1630.84,97.38 1630.84,164.56 1667.01,164.56 1667.01,183.24 1607.39,183.24 "/>
    <polygon fill="#1D2155" fill-rule="nonzero" points="1676.55,97.38 1700,97.38 1700,164.56 1736.17,164.56 1736.17,183.24 1676.94,183.24 "/>
    <path fill="#1D2155" fill-rule="nonzero" d="M1769.16 97.38l21.46 0 30.6 86.25 -23.45 0 -5.17 -15.9 -27.03 0 -5.57 15.9 -21.07 0 30.21 -86.25zm17.88 53.26l0 0 -7.95 -23.85 -0.4 0 -8.35 23.85 16.69 0z"/>
   </g>
   <g>
    <path fill="#1D2155" fill-rule="nonzero" d="M214.64 106.13c1.99,1.59 0.4,-1.19 0.4,-2.78 -0.8,0 -1.59,0 -1.19,0.8 -0.8,-0.8 -0.4,-2.38 -1.19,-2.38 3.98,-1.99 13.91,-5.17 17.89,1.59 -0.4,0.4 -1.19,0.4 -1.19,1.59 -0.4,0.8 0.8,0.8 0.8,1.19 -0.8,7.55 1.99,14.31 1.99,20.27 -0.79,6.36 0,12.72 0.8,17.49 1.59,11.92 0.8,26.23 3.98,37.76 -0.4,0 -0.4,0.79 -0.4,0.79 0.4,0 0.4,-0.79 0.4,-0.79 0.79,0 -0.4,1.59 0.4,0.79 0.8,-1.99 2.39,-2.38 2.78,-3.98 -0.4,0 -0.4,0.8 -1.19,0.8 1.59,-1.59 2.38,-3.58 3.18,-5.57 -0.79,0 -0.79,-1.59 0.4,-0.79 0.4,-1.19 0.4,-2.38 0.79,-3.98 0,0.79 0,1.19 0.8,1.19 0.79,-3.18 2.38,-5.57 2.38,-9.14 0.4,0 0.4,0 0.8,-0.4 0,0.4 0.4,0.4 0.4,0.4 0,-0.4 -0.4,0 -0.4,-0.4 -0.8,-0.4 0,-0.8 0,-1.59 0.4,0 0.4,0.79 0.4,0.79 1.99,-2.78 2.38,-7.15 4.77,-9.14 0,-0.4 -0.4,-0.8 -0.4,-1.19 3.97,-6.76 7.15,-14.31 10.73,-22.26 0.79,0 0.79,-0.4 1.59,-0.4 -0.4,-0.79 -0.4,-1.19 -0.4,-1.99 0.8,0 0.8,-0.8 1.59,-0.8 0,-1.19 -1.19,-0.4 -1.19,-0.79 0,-1.59 0.4,-0.8 1.59,-0.8 0.79,-3.58 3.97,-7.55 4.37,-11.13 0.4,0 0.79,0 0.79,0.79 0.8,-1.59 2.38,-2.38 2.38,-4.77 0.4,-0.8 0.4,0 0.8,0.4 1.19,-1.59 0.79,-3.58 1.59,-4.77 0.4,0 0.4,0.79 0.4,0.79 0.79,0 0.79,-0.4 0.79,-1.59 0.4,0 0.8,0 0.8,-0.4 -0.4,-0.4 -0.8,0 -0.8,0.4 0,-2.38 4.37,-4.37 3.98,-7.55 0.4,-0.79 0.8,-0.79 1.19,-0.4 -0.8,-0.8 0,-1.99 0.8,-3.18 1.59,0.79 -0.4,1.19 -0.4,2.38 0.8,0 2.78,-2.78 0.8,-2.78 0.79,-0.4 0.79,-0.79 1.19,-1.59 1.19,-0.4 0,1.19 0.79,1.19 0.8,-0.79 0.8,-2.39 1.19,-2.39 0.8,-0.79 0.4,0.8 0.8,0.8 0.79,-0.4 -0.4,-1.59 0.79,-2.39 2.38,-0.79 3.97,-1.99 5.56,-3.18 3.98,0 6.76,1.19 9.54,2.78 0,1.19 0.79,2.38 1.99,2.38 -0.8,6.36 -3.97,9.54 -6.76,13.51 0.4,0.4 0.4,0.8 0.4,1.59 -7.55,8.35 -12.32,19.48 -18.29,28.62 -8.74,16.3 -15.5,34.18 -23.05,51.67 -2.78,7.55 -5.57,13.91 -12.32,17.09 -0.8,0.4 -1.19,0.4 -1.19,0.79 -2.38,0.8 -3.18,0.8 -4.77,0.8 -0.4,-0.4 -0.79,-0.8 -2.38,-0.4 -1.59,-0.8 -2.38,-1.19 -5.17,-0.8 0,-0.79 -0.79,-0.79 -1.99,-0.79 0,-0.8 -0.8,-1.19 -1.19,-0.8 -2.39,-1.19 -3.98,-3.98 -7.55,-3.98 0.4,-0.79 -0.8,-0.79 -0.4,-1.59 0.79,-0.4 0.4,0.8 0.79,0.8 -0.4,-1.99 -1.59,-5.57 -1.59,-9.54 0,-0.4 -0.4,0.4 -0.8,0 0,-0.79 0.8,-0.4 0.8,-1.19 -2.39,-20.67 -3.98,-40.94 -3.98,-63.2 0,-0.79 -1.19,0 -1.19,-0.79 1.59,-1.99 1.59,-9.14 0.8,-11.13 -0.8,0.8 -1.19,-1.19 -0.8,-2.78zm-1.19 3.18l0 0c-0.8,0 -0.4,-1.19 -0.4,-1.59 0.4,0 0.4,1.19 0.4,1.59zm0.79 -3.58l0 0c-0.79,0.4 -0.79,-0.8 -0.79,-1.59 1.19,-0.8 0.79,1.19 0.79,1.59zm0 13.12l0 0c-1.19,0 0,-0.8 -0.79,-0.8 0.79,-0.79 1.19,0.8 0.79,0.8zm0 4.37l0 0 -0.79 0 0.79 0zm0 1.99l0 0c0,0.4 -0.79,0.4 -0.79,0.4 0,-0.4 0.79,-0.4 0.79,-0.4zm0 -9.94l0 0c-0.79,-1.19 0,-3.18 0.4,-3.97 0.4,0.79 0,2.78 -0.4,3.97zm0.8 3.58l0 0c0,0.79 -0.8,2.78 0.4,2.78 0,-1.19 1.19,-2.78 -0.4,-2.78zm0 15.1l0 0c0,0.4 0,0.8 0.4,0.8 0,-0.4 0,-0.8 -0.4,-0.8zm0 1.99l0 0c0,0.79 0.4,0.79 0.79,0.79 0.4,0 0.8,-1.19 -0.79,-0.79zm0.4 3.97l0 0c0,0.4 0,0.4 0,0.8 1.19,0 1.19,-1.19 0,-0.8zm1.19 2.39l0 0c0,0 0,-0.4 0,-0.79 -0.4,0 -0.4,0 -0.8,0 0,0.4 0,0.79 0,0.79 0.8,0 0.8,0 0.8,0zm0 2.78l0 0c0,-0.8 -0.4,-0.8 -0.8,-0.8 0.4,0.8 0.4,1.19 0.8,0.8 0,0.4 0,0 0,0zm0 1.19l0 0c0,0.79 0,2.38 0.4,1.59 -0.4,-0.4 -0.4,-2.38 -0.4,-1.59zm0 22.66l0 0 1.59 -13.51c-0.8,0 -0.8,0 -1.19,0 0,0.4 0,0.8 0,1.19 1.19,0 0.4,-0.8 1.19,-1.19l-1.59 13.51zm0 -10.73l0 0c0.79,1.19 0,3.57 0.79,5.17 0.8,-1.99 0.8,-4.37 -0.79,-5.17zm1.59 9.54l0 0c-0.8,1.19 -0.8,2.78 0.4,3.18 -0.4,-1.59 -0.4,-2.38 -0.4,-3.18zm0 4.37l0 0c0,0.8 0,1.99 0.4,2.38 0,-1.19 0.8,-3.18 -0.4,-2.38zm0.4 6.36l0 0c0,0 0,0.4 0,0.8 1.19,0.4 1.19,-1.59 0,-0.8zm0.8 3.18l0 0c0,0.4 -0.8,1.19 0,1.19 0,0 0.79,-0.79 0,-1.19zm0.4 5.96l0 0c0,0.79 0.4,1.99 0.79,1.99 0,-0.4 0.4,-1.99 -0.79,-1.99zm1.59 -12.72l0 0c0,-0.8 -0.4,-0.8 -0.8,-0.8 0,0.4 -0.4,0.4 -0.4,0.8 0.4,-0.4 0.4,0 1.19,0zm15.9 6.76l0 0c-0.8,-0.8 0.4,-1.59 0.4,-2.38 0.4,0.4 -0.4,1.59 -0.4,2.38zm0.4 1.99l0 0c-0.4,0.4 0,0.4 0,0 0.4,0 0.4,-0.8 0.4,-0.8 0.4,-0.4 0,-0.4 0,0 -0.4,0 -0.4,0 -0.4,0.8zm1.99 -8.35l0 0c-0.4,0.8 -0.4,0 -0.8,0 0.4,-0.4 0.8,-0.4 0.8,0zm-0.4 -0.79l0 0c0.4,-1.99 1.99,-3.58 1.99,-5.96 1.19,0.79 -0.8,4.37 -1.99,5.96zm3.18 -4.77l0 0c0,0 0,-0.4 0.79,-0.4 -0.4,0 -0.4,0.4 -0.79,0.4zm0.4 -2.78l0 0c0.79,0.4 0,1.59 0,2.38 -0.4,-1.19 0.4,-1.19 0,-2.38zm6.76 -17.09l0 0c0,0.4 -0.4,0.4 -0.79,0.4 0.4,-0.4 0.4,-0.4 0.79,-0.4zm1.19 5.57l0 0c0,-0.4 0,0 0,0 0,-0.4 0,-0.4 0,0zm1.59 -10.34l0 0c0,-0.8 0,-0.8 0.4,-1.19l0.4 0c0,0.4 0.4,1.59 -0.8,1.19zm2.78 -5.17l0 0c0,0 -0.4,0 0,0 0,0 0,0.4 0,0zm0 5.17l0 0c0,-0.8 0,-0.8 -0.4,-0.8 0,0.8 0,1.19 0.4,0.8zm0 -6.36l0 0c0.4,-0.4 0.8,-0.8 0.8,-1.99 0.79,0.8 0.4,2.78 -0.8,1.99zm1.99 2.78l0 0c0,-0.79 0,-0.79 0,-0.79l-0.4 0c0,0 0,0 0.4,0.79zm0.4 -1.99l0 0c0.8,0.4 0.8,-1.19 0.4,-0.79 0,0 0,0.4 -0.4,0l0 0.79zm3.18 -10.33l0 0c0,0.8 -0.4,0 -0.79,0 0.4,-0.4 0.79,-0.4 0.79,0zm0 -3.18l0 0c0,-0.8 0.4,-1.19 0.8,-1.19 -0.4,0.4 0,1.19 -0.8,1.19zm1.59 0.4l0 0c0,0.4 0,0.8 0,0.8 -0.79,0 -0.79,0 -0.79,0.4l-0.4 0c0,-0.4 0,-0.4 0,-0.8 0,0 0,0 0,-0.4 0.4,0 1.19,0 1.19,0zm0 -2.78l0 0c-0.4,0 -0.4,-0.79 0,-0.79 0,0 0,0 0.4,0 0,0.4 -0.4,0.79 -0.4,0.79zm0.4 -1.99l0 0c0.8,0.79 0.4,0.79 0,1.19 0,-0.4 0,-0.8 0,-1.19zm4.38 -4.37l0 0c-0.4,0 -0.4,0 -0.8,0 0.4,0 0.4,0 0.8,0zm1.19 1.59l0 0c0.4,0 0.8,0 0.8,0 -0.4,0 -0.8,0 -0.8,0zm6.76 -12.72l0 0c0,-0.4 0,-0.4 0,-0.79 -0.4,0 -0.4,0 -0.8,0 0,0.4 0,0.4 0,0.79 0.4,0 0.4,0 0.8,0zm0 -3.18l0 0c-0.8,0 0,-1.19 0.8,-1.19 0,0.8 -0.4,0.8 -0.8,1.19zm3.18 -4.37l0 0c-0.4,0.79 -0.4,1.99 -1.59,1.59 0.4,0 0.8,-0.8 0.4,-1.59 0.4,0 0.8,0 1.19,0zm10.73 -10.73l0 0c-0.8,0 -1.59,0.79 -0.8,1.59 0,-0.8 0.8,-0.4 0.8,-1.59z"/>
    <path fill="#1D2155" fill-rule="nonzero" d="M360.51 123.22c-0.4,-0.8 -1.19,1.59 -1.59,1.99 0,-1.99 2.38,-3.97 3.58,-5.96 1.59,0.8 1.99,1.59 2.38,0 0.79,1.59 -0.8,3.18 -0.8,5.56 -1.19,0.4 0.4,1.59 -0.79,2.39 0.4,0.79 0.79,-0.8 0.79,-0.8 -1.59,3.97 -2.38,7.55 -3.97,11.13 0,0.79 0.79,0 0.79,-0.8 -1.99,4.77 -3.98,10.73 -5.17,15.5 -0.8,0 -0.8,0 -0.8,0 0.8,-1.19 -0.79,-0.4 0,0 -1.99,3.18 -2.39,5.57 -3.98,9.14 -0.4,0.4 -0.79,0.4 -0.79,0 0,1.19 -1.19,1.59 -0.8,3.18 -0.4,0 -0.79,0 -0.79,0 -1.19,4.77 -5.57,7.95 -7.15,13.52 -0.4,0 -1.19,0 -1.19,-0.4 -0.8,0.4 0,0.79 0,1.99 -3.97,5.17 -8.74,10.73 -13.51,15.9 -0.4,0.4 -0.4,0.4 -0.4,1.19 -0.79,-0.79 -0.79,0.8 -0.79,0.8 -1.59,-0.8 -0.8,1.59 -1.59,1.59 -0.4,-0.4 -0.8,-0.4 -1.19,-0.4 -0.8,1.99 -3.58,2.39 -3.97,5.57 -4.37,3.18 -10.33,5.57 -17.49,5.57 -2.39,-1.19 -5.57,-1.59 -7.95,-2.78 -0.8,-0.4 -1.19,-1.59 -2.39,-2.38 -8.74,-5.17 -12.72,-10.34 -13.51,-21.07 -0.8,-3.98 0,-9.54 0.79,-12.32 -0.4,2.38 0,4.37 -0.4,7.95 0.79,-2.78 0.4,-7.15 0.79,-9.94 -1.19,-0.79 0,1.19 -0.79,0.8 0.4,-0.4 0,-1.59 0,-2.38 0.4,0.8 0.79,0.8 1.59,0.4 0.4,2.78 -0.8,7.55 0,10.73 0.8,-11.13 2.38,-27.03 5.96,-36.97 0,-5.57 2.38,-9.14 2.78,-13.52 -1.99,2.39 -2.78,8.35 -3.18,10.73 -1.19,-2.78 1.19,-5.56 1.19,-8.74 -2.38,3.18 -1.99,8.74 -3.98,12.32 0.79,-10.33 5.57,-19.08 7.55,-28.62 0.8,-0.4 1.19,-1.19 1.99,-1.59 0.79,-0.8 -0.8,-0.4 -0.8,-1.59 4.37,-0.79 15.5,-3.18 19.08,1.99 -1.19,2.78 -1.59,6.36 -2.39,9.14 -0.79,3.97 -0.79,7.95 -1.19,11.13 -0.4,0.79 -1.19,0.79 -1.59,1.59 -0.8,2.38 -0.8,5.57 -1.59,7.95 -0.79,4.37 -2.78,9.94 -3.18,15.11 -0.79,3.18 -0.79,9.94 -1.99,12.72 -0.8,10.33 -1.59,19.87 0.79,28.22 3.58,-2.38 5.97,-5.56 9.54,-8.34 -0.8,1.19 -1.99,2.38 -3.18,3.97 13.91,-12.32 25.04,-28.62 36.17,-44.12 0.4,0 0.4,-0.8 1.19,0 2.78,-7.15 8.34,-11.53 11.53,-18.68 2.78,-1.59 5.17,-4.37 6.36,-8.35zm-82.67 44.12l0 0c0.4,-0.8 0.4,-1.59 1.59,-1.59 -0.8,0.8 -0.8,1.59 -1.59,1.59zm0 14.31l0 0c0.4,0.4 0,1.19 0.79,0.79 0,-0.4 -0.4,-0.79 -0.79,-0.79zm0.79 -17.09l0 0c-0.79,-0.4 0,-1.59 0,-1.99 1.19,0.4 0,1.99 0,1.99zm1.19 3.18l0 0c0,0.8 0.4,1.59 -0.4,1.59 0,-0.79 -1.19,-1.59 0.4,-1.59zm-0.4 12.72l0 0c0,1.59 -0.8,2.38 0,3.58 0,-1.19 0.8,-2.78 0,-3.58zm0 -20.67l0 0c0.4,0 0.4,0.4 0.8,0.4 0,1.19 -1.59,-0.4 -0.8,-0.4zm0.8 -4.77l0 0c2.78,-3.97 1.19,-9.14 3.97,-12.32 -2.38,7.15 -3.18,15.11 -4.77,23.05 -0.4,-4.37 -1.19,-8.74 0.8,-12.72 0.4,0.8 0,0.8 0,1.99zm-0.8 29.42l0 0c0,1.19 0,2.38 0,3.97 0.8,-0.79 0.4,-3.97 0,-3.97zm0.8 5.17l0 0c0,-0.4 0,-1.19 -0.8,-0.79l0 0.79c0.4,-0.4 0.4,0 0.8,0zm0 -34.18l0 0c-0.4,1.19 -0.8,3.18 -0.4,3.97 0.4,-0.8 1.59,-2.78 0.4,-3.97zm0 34.58l0 0c0,0.8 0,2.39 0.79,1.19 -1.19,0.4 -0.4,-1.59 -0.79,-1.19zm0 2.39l0 0c0.79,0 -0.4,1.99 0.79,1.59 0.4,-0.4 -0.79,-2.38 -0.79,-1.59zm2.38 -47.7l0 0c-0.79,2.78 -0.79,5.17 -1.99,8.34 0,-3.18 0.79,-6.76 1.99,-8.34zm4.37 -13.91l0 0c0,0 0.4,-0.79 0,-1.59 0.4,0 0.4,0 0.4,0 0,-0.4 0.8,-1.19 0.4,-1.99 -0.4,0.79 -0.8,1.19 -0.8,1.99 -0.4,0.8 -0.79,1.59 0,1.59zm1.59 -5.96l0 0c0,0.4 -0.4,0.4 -0.4,1.19 0.8,0.4 0.8,-1.59 0.4,-1.19zm0.4 1.59l0 0c0.4,0.8 -0.8,0.8 0,1.59 0,-0.79 0.79,-1.59 0,-1.59zm1.19 -6.76l0 0c0,0.8 -0.79,1.99 0,2.39 0,-0.4 1.19,-1.59 0,-2.39zm2.78 -6.36l0 0c0,0 0.4,0 0,0 0.4,-0.4 0,-0.4 0,0zm26.23 -38.56l0 0c-2.38,2.78 -3.97,4.37 -6.36,5.97 -3.98,0 -5.57,2.38 -9.54,2.38 -1.59,-6.36 -2.38,-13.91 -2.38,-21.07 4.77,-0.4 7.15,-3.98 13.91,-3.98 3.98,1.19 6.36,3.98 7.95,7.55 -0.4,3.58 -0.8,5.96 -1.59,9.14 -1.19,0.4 -1.59,-1.19 -1.99,0zm-9.54 116.46l0 0c-0.8,0 0.79,-0.79 0,-1.19 0.79,0.4 0,0.8 0,1.19zm1.99 -1.99l0 0c-0.79,-0.8 0,-1.59 0.8,-1.59 0.4,1.19 -1.19,0.79 -0.8,1.59zm0.8 -1.59l0 0c-0.4,-0.8 0.79,-0.4 0.79,-1.19 0,1.19 -0.4,1.19 -0.79,1.19zm0.79 -1.59l0 0c0.8,0 0.8,0.79 0,0.79 0,0 0,0 -0.4,0 0.4,-0.79 0.4,-0.79 0.4,-0.79zm1.59 -1.59l0 0c0.4,-0.8 0.8,-0.8 1.59,-1.59 -0.4,1.19 -0.4,1.99 -1.59,1.59zm3.98 -4.37l0 0c0,0.4 0,0.4 0,0 -0.4,0.4 -0.4,0 0,0zm1.19 -0.4l0 0c-0.8,-1.99 2.39,-4.37 3.98,-5.57 -1.19,1.99 -3.18,2.78 -3.98,5.57zm4.37 -6.36l0 0c0,0 0,0.79 -0.4,0.79 0,-0.79 0,-0.79 0.4,-0.79zm0.4 -1.19l0 0c0.8,0.4 -0.4,1.19 -0.79,1.19 0,-0.8 0.4,-0.8 0.79,-1.19zm1.19 0l0 0c-0.79,-0.79 0.4,-1.19 0.4,-1.59l0.4 0c-0.4,0.8 -0.4,0.8 -0.8,1.59zm2.38 -5.17l0 0c0.4,0 0.79,0.4 0.79,0.8 -0.79,0 -0.79,0 -0.79,0 0,0 0,-0.4 0,-0.8zm1.19 -0.4l0 0c-0.8,0 0,-0.4 0,-0.8 0.4,0 0,0.8 0,0.8zm1.99 -2.78l0 0c-1.19,0 0.79,-1.99 1.59,-2.38 -0.4,1.59 -0.8,1.59 -1.59,2.38zm1.59 -2.38l0 0c0,-0.4 0,-0.4 0,-0.79 0.4,0 0.4,0 0.4,0 0,0.79 0,0.79 -0.4,0.79zm2.78 -2.78l0 0c-0.4,0.8 -1.19,1.99 -2.38,2.38 0.8,-1.19 0.8,-2.78 2.38,-2.38zm3.58 -6.36l0 0c0.8,0.79 -0.4,1.59 -0.79,1.59 -0.4,-0.8 0.79,-0.4 0.79,-1.59zm1.59 -0.8l0 0c-0.79,0 0.4,-1.59 0.8,-1.59 -0.4,0.4 -0.8,1.19 -0.8,1.59zm1.59 -3.18l0 0c0,0.8 0,0.8 -0.8,0.8 0.4,-0.8 0.4,-0.8 0.8,-0.8zm-0.4 3.18l0 0c0,0.8 0,0.8 0.8,0.8 -0.4,-0.4 0,-1.19 -0.8,-0.8zm0.4 -3.18l0 0c0,-0.79 0.79,-0.79 0.79,-1.99 0.4,1.59 0,1.99 -0.79,1.99zm2.38 -1.99l0 0c-1.19,-0.8 0.8,-1.59 0.4,-2.38 1.19,0.8 -0.4,1.59 -0.4,2.38zm0.8 -2.78l0 0c0,-0.8 0.79,-1.19 1.19,-1.59 0,0.4 0.4,1.59 -1.19,1.59zm3.18 -3.97l0 0c0,0.4 0,0.4 0,0.8 -0.4,0 -0.4,0 -0.8,0 0,-0.4 0,-0.4 0,-0.8 0.8,0 0.8,0 0.8,0zm0.8 -0.79l0 0c-0.4,0 0,-1.99 0.79,-1.59 0,0.8 -0.79,0.8 -0.79,1.59zm3.18 -4.77l0 0c0.4,-0.4 0,-0.79 0.4,-0.79 0,0.4 0,0.79 -0.4,0.79zm1.59 -3.18l0 0c0.4,1.19 -0.4,1.19 0,1.59 -0.8,0.4 -0.8,-1.99 0,-1.59zm0 0c0,-0.79 0.4,-0.79 0.79,-0.79 0,0.4 0.4,0.79 -0.79,0.79zm1.59 -1.59l0 0 -0.8 0 0.8 0zm0.79 -0.4l0 0c-1.59,-0.8 0.4,-1.99 1.19,-2.38 -0.79,0.8 -0.79,1.99 -1.19,2.38zm1.59 -3.18l0 0c0.79,0 0.4,1.59 -0.4,0.79 0,-0.4 0.4,-0.4 0.4,-0.79zm0 3.18l0 0c0.4,0 0.79,0 0.79,-0.4 -0.4,0 -0.79,0 -0.79,0.4zm4.37 -9.54l0 0c-0.8,1.19 -1.59,1.99 -1.99,3.58 1.19,-0.8 2.38,-2.39 1.99,-3.58z"/>
    <path fill="#1D2155" fill-rule="nonzero" d="M343.02 106.13c1.99,1.59 0.4,-1.19 0.4,-2.78 -0.79,0 -1.59,0 -1.19,0.8 -0.79,-0.8 -0.4,-2.38 -1.19,-2.38 3.97,-1.99 13.91,-5.17 17.88,1.59 -0.4,0.4 -1.19,0.4 -1.19,1.59 -0.4,0.8 0.8,0.8 0.8,1.19 -0.8,7.55 1.99,14.31 1.99,20.27 -0.8,6.36 0,12.72 0.8,17.49 1.59,11.92 0.79,26.23 3.97,37.76 -0.4,0 -0.4,0.79 -0.4,0.79 0.4,0 0.4,-0.79 0.4,-0.79 0.8,0 -0.4,1.59 0.4,0.79 0.79,-1.99 2.38,-2.38 2.78,-3.98 -0.4,0 -0.4,0.8 -1.19,0.8 1.59,-1.59 2.38,-3.58 3.18,-5.57 -0.8,0 -0.8,-1.59 0.4,-0.79 0.4,-1.19 0.4,-2.38 0.8,-3.98 0,0.79 0,1.19 0.79,1.19 0.8,-3.18 2.38,-5.57 2.38,-9.14 0.4,0 0.4,0 0.79,-0.4 0,0.4 0.4,0.4 0.4,0.4 0,-0.4 -0.4,0 -0.4,-0.4 -0.79,-0.4 0,-0.8 0,-1.59 0.4,0 0.4,0.79 0.4,0.79 1.99,-2.78 2.38,-7.15 4.77,-9.14 0,-0.4 -0.4,-0.8 -0.4,-1.19 3.97,-6.76 7.15,-14.31 10.73,-22.26 0.8,0 0.8,-0.4 1.59,-0.4 -0.4,-0.79 -0.4,-1.19 -0.4,-1.99 0.8,0 0.8,-0.8 1.59,-0.8 0,-1.19 -1.19,-0.4 -1.19,-0.79 0,-1.59 0.4,-0.8 1.59,-0.8 0.8,-3.58 3.98,-7.55 4.37,-11.13 0.4,0 0.8,0 0.8,0.79 0.79,-1.59 2.39,-2.38 2.39,-4.77 0.4,-0.8 0.4,0 0.79,0.4 1.19,-1.59 0.8,-3.58 1.59,-4.77 0.4,0 0.4,0.79 0.4,0.79 0.8,0 0.8,-0.4 0.8,-1.59 0.4,0 0.8,0 0.8,-0.4 -0.4,-0.4 -0.8,0 -0.8,0.4 0,-2.38 4.37,-4.37 3.97,-7.55 0.4,-0.79 0.79,-0.79 1.19,-0.4 -0.8,-0.8 0,-1.99 0.79,-3.18 1.59,0.79 -0.4,1.19 -0.4,2.38 0.79,0 2.78,-2.78 0.79,-2.78 0.8,-0.4 0.8,-0.79 1.19,-1.59 1.19,-0.4 0,1.19 0.8,1.19 0.79,-0.79 0.79,-2.39 1.19,-2.39 0.79,-0.79 0.4,0.8 0.79,0.8 0.8,-0.4 -0.4,-1.59 0.8,-2.39 2.38,-0.79 3.97,-1.99 5.57,-3.18 3.97,0 6.76,1.19 9.54,2.78 0,1.19 0.8,2.38 1.99,2.38 -0.79,6.36 -3.97,9.54 -6.76,13.51 0.4,0.4 0.4,0.8 0.4,1.59 -7.55,8.35 -12.32,19.48 -18.29,28.62 -8.74,16.3 -15.5,34.18 -23.05,51.67 -2.78,7.55 -5.57,13.91 -12.32,17.09 -0.79,0.4 -1.19,0.4 -1.19,0.79 -2.38,0.8 -3.18,0.8 -4.77,0.8 -0.4,-0.4 -0.8,-0.8 -2.38,-0.4 -1.59,-0.8 -2.38,-1.19 -5.17,-0.8 0,-0.79 -0.8,-0.79 -1.99,-0.79 0,-0.8 -0.79,-1.19 -1.19,-0.8 -2.39,-1.19 -3.98,-3.98 -7.55,-3.98 0.4,-0.79 -0.79,-0.79 -0.4,-1.59 0.8,-0.4 0.4,0.8 0.8,0.8 -0.4,-1.99 -1.59,-5.57 -1.59,-9.54 0,-0.4 -0.4,0.4 -0.8,0 0,-0.79 0.8,-0.4 0.8,-1.19 -2.39,-20.67 -3.98,-40.94 -3.98,-63.2 0,-0.79 -1.19,0 -1.19,-0.79 1.59,-1.99 1.59,-9.14 0.8,-11.13 -0.8,0.8 -1.19,-1.19 -0.8,-2.78zm-0.8 3.18l0 0c-0.79,0 -0.4,-1.19 -0.4,-1.59 0.4,0 0.4,1.19 0.4,1.59zm0.4 -3.58l0 0c-0.8,0.4 -0.8,-0.8 -0.8,-1.59 1.19,-0.8 0.8,1.19 0.8,1.59zm0 13.12l0 0c-1.19,0 0,-0.8 -0.8,-0.8 0.8,-0.79 1.19,0.8 0.8,0.8zm0 4.37l0 0 -0.4 0 0.4 0zm0 1.99l0 0c0,0.4 -0.8,0.4 -0.8,0.4 0.4,-0.4 0.8,-0.4 0.8,-0.4zm0 -9.94l0 0c-0.8,-1.19 0,-3.18 0.4,-3.97 0.4,0.79 0,2.78 -0.4,3.97zm1.19 3.58l0 0c0,0.79 -0.79,2.78 0.4,2.78 0,-1.19 0.79,-2.78 -0.4,-2.78zm0 15.1l0 0c0,0.4 0,0.8 0.4,0.8 0,-0.4 0,-0.8 -0.4,-0.8zm0 1.99l0 0c0,0.79 0.4,0.79 0.8,0.79 0,0 0.4,-1.19 -0.8,-0.79zm0.4 3.97l0 0c0,0.4 0,0.4 0,0.8 1.19,0 1.19,-1.19 0,-0.8zm1.19 2.39l0 0c0,0 0,-0.4 0,-0.79 -0.4,0 -0.4,0 -0.79,0 0,0.4 0,0.79 0,0.79 0.4,0 0.4,0 0.79,0zm0 2.78l0 0c0,-0.8 -0.4,-0.8 -0.79,-0.8 0,0.8 0,1.19 0.79,0.8 -0.4,0.4 -0.4,0 0,0zm-0.4 1.19l0 0c0,0.79 0,2.38 0.4,1.59 -0,-0.4 -0,-2.38 -0.4,-1.59zm0.4 22.66l0 0 1.19 -13.51c-0.79,0 -0.79,0 -1.19,0 0,0.4 0,0.8 0,1.19 1.19,0 0.4,-0.8 1.19,-1.19l-1.19 13.51zm0 -10.73l0 0c0.8,1.19 0,3.57 0.8,5.17 0.4,-1.99 0.8,-4.37 -0.8,-5.17zm1.19 9.54l0 0c-0.79,1.19 -0.79,2.78 0.4,3.18 0,-1.59 -0.4,-2.38 -0.4,-3.18zm0.4 4.37l0 0c0,0.8 0,1.99 0.4,2.38 0,-1.19 0.4,-3.18 -0.4,-2.38zm0.4 6.36l0 0c0,0 0,0.4 0,0.8 1.19,0.4 1.19,-1.59 0,-0.8zm0.4 3.18l0 0c0,0.4 -0.79,1.19 0,1.19 0,0 1.19,-0.79 0,-1.19zm0.8 5.96l0 0c0,0.79 0.4,1.99 0.79,1.99 -0.4,-0.4 0,-1.99 -0.79,-1.99zm1.19 -12.72l0 0c0,-0.8 -0.4,-0.8 -0.8,-0.8 0,0.4 -0.4,0.4 -0.4,0.8 0.4,-0.4 0.4,0 1.19,0zm15.9 6.76l0 0c-0.79,-0.8 0.4,-1.59 0.4,-2.38 0.79,0.4 -0.4,1.59 -0.4,2.38zm0.4 1.99l0 0c-0.4,0.4 0,0.4 0,0 0.4,0 0.4,-0.8 0.4,-0.8 0.4,-0.4 0,-0.4 0,0 -0.4,0 -0.4,0 -0.4,0.8zm2.38 -8.35l0 0c-0.4,0.8 -0.4,0 -0.79,0 0,-0.4 0.79,-0.4 0.79,0zm-0.4 -0.79l0 0c0.4,-1.99 1.99,-3.58 1.99,-5.96 0.8,0.79 -1.19,4.37 -1.99,5.96zm2.78 -4.77l0 0c0,0 0,-0.4 0.8,-0.4 0,0 0,0.4 -0.8,0.4zm0.8 -2.78l0 0c0.79,0.4 0,1.59 0,2.38 -0.8,-1.19 0.4,-1.19 0,-2.38zm6.76 -17.09l0 0c0,0.4 -0.4,0.4 -0.79,0.4 0.4,-0.4 0.4,-0.4 0.79,-0.4zm0.8 5.57l0 0c0,-0.4 0.4,0 0,0 0.4,-0.4 0,-0.4 0,0zm1.99 -10.34l0 0c0,-0.8 0,-0.8 0.4,-1.19l0.4 0c0,0.4 0,1.59 -0.8,1.19zm2.38 -5.17l0 0c0,0 0,0.4 0,0zm0 5.17l0 0c0,-0.8 0,-0.8 -0.4,-0.8 0.4,0.8 0.4,1.19 0.4,0.8zm0 -6.36l0 0c0.4,-0.4 0.79,-0.8 0.79,-1.99 0.8,0.8 0.8,2.78 -0.79,1.99zm1.99 2.78l0 0c0,-0.79 0,-0.79 0,-0.79l-0.4 0c0,0 0,0 0.4,0.79zm0.4 -1.99l0 0c0.8,0.4 0.8,-1.19 0.4,-0.79 0,0 0,0.4 -0.4,0l0 0.79zm3.18 -10.33l0 0c0,0.8 -0.4,0 -0.8,0 0.4,-0.4 0.8,-0.4 0.8,0zm0.4 -3.18l0 0c0,-0.8 0.4,-1.19 0.79,-1.19 -0.4,0.4 -0.4,1.19 -0.79,1.19zm1.19 0.4l0 0c0,0.4 0,0.8 0,0.8 -0.8,0 -0.8,0 -0.8,0.4 0,-0.4 0,-0.4 0,-0.8 0,0 0,0 0,-0.4l0.8 0zm0.4 -2.78l0 0c-0.4,0 -0.4,-0.79 0,-0.79 0,0 0,0 0.4,0 0,0.4 -0.4,0.79 -0.4,0.79zm0.4 -1.99l0 0c0.8,0.79 0.4,0.79 0,1.19 0,-0.4 0,-0.8 0,-1.19zm3.98 -4.37l0 0c-0.4,0.4 -0.4,0.4 -0.8,0.4l0 -0.4c0.4,0 0.4,0 0.8,0zm1.19 1.59l0 0c0.4,0 0.79,0 0.79,0 -0.4,0 -0.79,0 -0.79,0zm6.76 -12.72l0 0c0,-0.4 0,-0.4 0,-0.79 -0.4,0 -0.4,0 -0.79,0 0,0.4 0,0.4 0,0.79 0.4,0 0.4,0 0.79,0zm0 -3.18l0 0c-0.79,0 0,-1.19 0.8,-1.19 0.4,0.8 0,0.8 -0.8,1.19zm3.18 -4.37l0 0c-0.4,0.79 -0.4,1.99 -1.59,1.59 0.4,0 0.79,-0.8 0.4,-1.59 0.79,0 0.79,0 1.19,0zm11.13 -10.73l0 0c-0.79,0 -1.59,0.79 -0.79,1.59 -0.4,-0.8 0.79,-0.4 0.79,-1.59z"/>
    <path fill="#1D2155" fill-rule="nonzero" d="M486.51 117.66c-0.8,0 0,0.8 0,0.8 -1.99,5.56 -3.18,12.72 -5.57,18.28 0,8.74 -0.8,15.5 -0.8,24.64 1.19,8.35 1.19,19.08 7.15,25.44 12.72,-5.57 19.48,-17.09 28.62,-27.03 -0.4,-0.79 0.8,-0.79 0.8,-2.39 0.79,0 0.4,-1.19 1.59,-0.79 5.17,-8.35 10.73,-15.5 15.9,-23.05 0,-0.8 -0.8,-0.8 -0.4,-0.8 1.19,0.4 2.39,-0.79 1.99,-2.78 0.79,0 1.19,-0.8 1.59,0 0,-2.78 2.38,-3.98 3.18,-4.77 1.99,-2.78 5.17,-7.55 7.95,-10.73 0.4,0.79 0.8,0.79 0.8,1.19 -0.4,1.99 -0.8,3.18 0,4.77 -0.8,2.39 -2.39,5.57 -3.98,7.55 0.8,1.99 -0.79,3.97 -2.38,4.37 0.4,1.19 0.79,0 1.59,0 0,1.59 -1.59,1.19 -1.59,2.38 -0.4,0.79 -0.8,0.79 -0.8,0.79 0.8,0.4 1.19,0 0.8,-0.79 1.19,0.79 1.19,-1.19 1.99,-0.8 -0.8,1.99 -2.39,3.98 -3.58,5.96 1.19,-0.79 1.99,-2.38 3.18,-3.58 -0.8,1.59 -1.99,4.77 -3.18,5.57 0,0.4 0.79,0.4 0.79,0.79 -1.19,0.8 -1.59,2.78 -2.39,4.37 -0.79,0 -0.79,0 -0.79,0 -0.4,0.8 0.4,0.8 0.4,1.99 -1.99,1.99 -2.38,4.37 -3.98,5.96 -0.79,6.76 -7.55,12.32 -10.33,18.68 -8.74,9.54 -17.09,20.67 -34.18,21.07 -5.17,2.38 -8.35,-1.99 -12.32,-3.98 -3.58,-1.99 -7.55,-3.18 -9.14,-5.56 -3.97,-3.98 -6.76,-9.54 -7.55,-15.1 -0.4,-0.8 -0.4,-1.99 -0.8,-2.38 0,-1.99 -0.79,-4.37 0,-5.57 -0.79,-0.8 -0.79,-1.59 -1.19,-1.99 0,-0.79 0.4,-1.99 0,-2.38 -0.79,0.79 -1.19,1.99 -1.59,2.78 -0.4,0 -0.4,-0.4 -0.79,-0.4 -7.55,11.93 -15.11,24.25 -26.63,32.59 -2.38,0.4 -4.37,1.59 -7.55,1.99 -9.94,-0.4 -13.91,-6.76 -19.48,-12.32 0.79,-0.79 -1.59,-2.78 0,-3.58 -0.8,-0.8 -1.59,-1.99 -0.8,-3.18 0.8,-2.39 0.4,-3.98 0.4,-7.55 0.4,0 0.8,0.8 0.8,0.8 0,-0.8 0.4,-1.59 -0.4,-1.19 -0.4,-0.8 0,-1.19 0.79,-0.8 0,-0.8 0,-0.8 -0.4,-0.8 0,-0.4 0.4,-0.4 0.8,-0.79 -1.99,-3.97 2.38,-9.14 2.38,-13.51 0.4,0 0,0.79 0,0.79 0.8,-0.4 1.59,-2.38 0.4,-2.38 0,-1.59 0.79,0 1.19,-0.8 0,-2.38 1.19,-3.57 0.8,-5.56 0.4,0.4 0.4,0.8 0.79,0.4 0.8,-3.58 3.98,-7.55 4.37,-11.92 0.8,0.4 -0.79,0.8 0,1.99 1.99,-3.18 2.39,-6.36 4.77,-9.14 1.19,-0.79 1.19,-2.38 1.99,-3.58 0.4,0 0.4,0.4 0.8,0.79 0.4,-1.19 1.19,-3.18 2.38,-4.37 0.4,0.4 0.4,0 0.4,0 0.4,0 0,-0.4 0,-0.4 0.79,-1.99 2.38,-3.18 3.58,-3.98 0,0.4 0,0 0,0 1.59,-2.78 3.97,-4.77 5.56,-7.15 0,-0.4 -1.19,-0.4 -0.8,-1.19 1.59,0.79 3.98,0.79 4.77,-0.8 8.34,-2.38 17.49,-1.59 21.46,4.37 -0.4,0.8 -0.79,0.8 -1.19,0.8 0.79,2.38 0.79,5.17 1.59,8.34 1.59,-0.79 1.99,-2.38 2.78,-3.58 0.79,0.79 -0.8,1.99 -0.8,3.18 1.59,-2.39 3.58,-3.98 3.97,-7.55 0.79,0 1.99,-1.19 1.19,-1.99 0.79,-3.97 3.97,-7.15 4.37,-10.33 5.56,-0.79 12.32,0 17.09,2.38 2.39,4.77 -1.19,9.94 -2.78,13.91 0.79,0.79 0.4,2.38 -0.4,3.18 0.8,1.19 0.8,1.19 0.8,0.4zm-79.89 45.71l0 0c0.4,0 0.79,0 0.79,0 -0.4,0 -0.79,0 -0.79,0zm6.36 -23.45l0 0c0,0.4 -0.4,0.4 0,0 -0.4,0 0,0 0,0zm0 3.58l0 0c1.19,0 0,-1.19 0,0 -0.4,0.4 0,0.4 0,0zm1.19 -1.59l0 0c0.4,-0.4 0,-0.4 0,0 -1.19,0 0,0.79 0,0zm3.58 -7.55l0 0c-0.79,-0.4 -1.19,0.79 -0.79,1.19 -0.4,-0.79 0.79,-0.79 0.79,-1.19zm1.19 47.3l0 0c4.37,-2.38 7.15,-5.57 9.14,-10.33 0,0.79 0,0 0,0 2.78,-2.39 3.98,-5.97 6.76,-8.75 0,0.8 0.8,-0.4 0,0 2.38,-3.58 3.97,-7.15 6.36,-9.54 0,1.59 1.19,0.4 0,0 0.79,-1.99 1.59,-3.97 3.18,-5.17 0,1.19 -1.59,1.99 -0.8,2.78 0.4,-0.8 2.38,-3.18 0.8,-2.78 0.79,-2.38 2.78,-5.56 4.37,-7.55 0,1.59 -1.59,1.99 -1.59,3.58 1.59,-0.79 2.38,-2.78 3.18,-4.77 0.4,0 0.79,-0.8 0.79,-1.19 -0.79,0 -0.79,0.4 -0.79,1.19 -0.8,0 -0.8,1.99 -1.19,0.79 2.38,-4.77 5.56,-8.74 7.55,-13.91 -0.79,-1.99 -1.99,-3.58 -2.78,-5.17 0,-0.4 -0.79,-0.79 -0.79,-0.79 0,-0.4 0,-1.19 -0.4,-1.19 -1.19,-1.99 -1.59,-5.56 -4.37,-6.76 -2.38,2.38 -5.17,5.57 -5.56,8.74 -10.73,17.89 -21.07,36.57 -23.85,60.82zm1.99 -56.44l0 0c-0.8,0 0,-0.79 0,-1.59 1.19,0.4 -0.4,0.8 0,1.59zm5.17 -6.36l0 0c-0.4,0 -0.4,-0.4 0,0zm1.59 -3.18l0 0c-0.4,0.4 -0.4,0.4 -0.79,0.4 -0.4,-0.4 0.4,-0.4 0.79,-0.4zm0 -0.4l0 0c0.4,-0.4 0.4,-1.19 0.8,-1.19 0,0.79 -0.4,1.19 -0.8,1.19zm3.58 54.06l0 0c0.79,0 -0.4,-1.19 0,0 -1.19,0 0,1.19 0,0zm0.79 -60.02l0 0c0.8,0.4 -0.4,1.19 -0.79,1.19 0,-0.79 0.79,-0.79 0.79,-1.19zm-0.79 1.59l0 0 11.13 42.13 0 -0.79 -0.79 0 0 0.79 0.79 0 -11.13 -42.13zm11.53 10.73l0 0c-0.4,-0.4 0,-0.4 0,0zm3.97 24.64l0 0c-1.19,0 -1.19,1.19 -1.59,1.59 0.4,0 1.19,-0.8 1.59,-1.59zm1.59 -34.98l0 0c0.4,0 0.8,0 0.8,0 -0.4,0 -0.8,0 -0.8,0zm5.97 21.07l0 0c-0.8,1.99 -1.99,3.58 -3.18,5.17 1.59,-0.8 3.58,-3.58 3.18,-5.17zm0 -8.35l0 0c0.79,-0.79 -0.8,-1.59 -0.4,-2.38 -0.79,0 -0.79,-0.4 -0.79,-0.8 -0.4,0.8 1.19,2.38 1.19,3.18zm1.19 0.8l0 0c-0.4,0.4 -0.4,0 -0.79,0 0,-0.4 0.79,-0.4 0.79,0zm-0.4 -2.78l0 0c0,0.8 0.8,1.99 1.59,2.38 0,-1.19 -0.79,-1.99 -1.59,-2.38zm0.8 3.18l0 0c0,0.4 -0.8,0.4 -0.8,0.4 0,0 0.8,0 0.8,-0.4zm0 5.96l0 0c-0.8,-0.79 0.79,-0.79 0.79,-1.99 0,0 0,0 0.4,0 0,-0.4 0.79,-1.19 0.4,-1.99 -0.4,0.79 -0.8,0.79 -0.8,1.99 -0.79,0 -1.99,1.59 -0.79,1.99zm4.37 43.33l0 0c0.4,-0.4 0.4,-0.8 0.79,-1.59 1.19,0 0.8,1.59 -0.79,1.59zm1.59 -54.85l0 0c0.4,0.8 0.79,-0.79 0,-0.79 0,0 0,0.4 0,0 0,0.4 0,0.79 0,0.79zm0.4 50.48l0 0c0.4,0 0.8,0 0.8,-0.8 -0.4,0.8 -0.8,0.8 -0.8,0.8zm1.99 -52.47l0 0c0,0.8 -0.79,0.8 0,1.19 0,0 0.4,-0.4 0,-1.19zm2.78 -6.36l0 0c-0.79,0.79 -1.19,2.38 -1.99,3.58 -0.8,-1.99 1.99,-3.58 2.39,-5.57 0.4,0 0.4,0.4 0.79,0.4 -0.4,0.4 -1.19,0.4 -1.19,1.59zm1.59 -3.58l0 0c0.4,0.4 -0.4,1.59 0.4,1.59 0,-0.79 0.79,-1.19 0.79,-1.99l0.4 0c0,0 0,-0.4 0,-0.8 -0.4,0 -0.4,0.4 -0.4,0.8 -0.4,0.4 -1.19,0.4 -1.19,0.4zm1.59 -1.99l0 0c1.19,0 0,-0.8 0,0 0,0.4 0,0.4 0,0zm63.59 51.67l0 0 5.96 -15.5c-0.4,1.59 1.59,0.4 0.8,0l-0.8 0 -5.96 15.5zm6.76 -9.14l0 0c-0.4,0 -0.8,-0.4 -0.4,-0.79 0.4,0.4 0.4,0.79 0.4,0.79z"/>
    <path fill="#1D2155" fill-rule="nonzero" d="M519.1 133.55c-0.79,0.8 -0.4,-1.59 -0.4,-1.99 0.4,-0.8 0.4,1.59 0.4,1.99zm0 2.38l0 0c-0.79,0.4 -0.4,-0.8 -0.4,-1.59 0.4,0.4 0.4,1.19 0.4,1.59zm23.05 40.54l0 0c0,0.4 0,0.4 0,0 1.59,0 1.59,-0.79 2.38,-0.79 -1.19,2.38 -4.37,3.18 -5.96,6.36 -0.4,0.4 0,0.4 0,0 0.79,-0.4 1.59,-1.19 2.78,-1.19 -0.8,0.8 -1.59,1.99 -2.78,2.38 0.79,0.79 0.4,0.79 0,1.99 -0.4,0 -0.4,0 -0.4,0.4 0,0.4 0.4,0 0.4,-0.4 0.79,0.8 -2.38,2.78 -2.38,4.77 1.19,-0.79 0.4,2.78 1.59,3.98 9.94,0.8 17.09,-5.17 22.26,-6.36 0.8,0 0.8,0 0.8,-0.4 4.37,-2.78 8.74,-6.76 12.32,-10.73 0.79,0.8 0.79,0 0,0 0.79,-1.59 2.38,-0.79 2.38,-2.78 0.4,0 0.4,-0.79 0.4,-0.79 0.4,0 0,-0.4 0,0 -0.4,0 -0.4,0.4 -0.4,0.79 -1.59,0.4 0.4,-1.19 0.4,-1.99 0,-0.8 -1.59,0 -2.38,-0.8 -12.32,-4.77 -28.62,-5.17 -39.75,-11.92 -3.18,-2.39 -5.56,-5.57 -8.34,-8.74 -1.19,-4.37 -4.77,-8.35 -5.57,-12.32 -0.8,-0.4 0.4,-0.4 0.4,-0.8 -0.4,-0.4 -0.79,0 -0.79,-1.19 0,-0.4 0,-0.4 0.79,0 -0.79,-7.55 3.18,-9.94 5.17,-15.5 3.18,-1.99 3.97,-5.96 7.55,-7.55 0,0.79 -0.8,0.79 -0.8,1.59 1.19,-0.4 1.59,-0.8 1.99,-1.99 0.79,0.79 0.79,-0.8 1.19,-0.8 0.8,0 0.8,-1.19 1.19,-1.59 0.8,0 0.8,-0.4 0.8,-0.4 0.4,0 0.79,-0.8 0.79,-0.8 0,0 0,0 0,-0.4 0.8,0 0,-0.4 0,0l0 0.4c-0.4,0.4 -0.79,0.4 -0.79,0.8 -0.8,0 -0.8,0 -0.8,0.4 -0.79,0 -0.79,0.79 -1.19,1.59 -0.79,0 -0.79,-0.8 -0.79,-0.8 5.57,-6.36 12.72,-11.92 20.27,-17.09 0.4,-0.4 0.4,-0.8 0.4,-1.19 2.38,-0.8 3.97,-2.38 5.96,-3.58 0.8,0 0.4,0.8 0.4,1.59 1.19,-3.18 6.36,-6.36 10.73,-6.76 0,1.59 -2.38,0.4 -2.38,1.59 0.8,0.4 2.38,0 3.18,-1.19 0,-0.79 -2.38,-0.4 -2.38,-1.99 0,-0.8 0.79,0.79 1.59,0.79 0.79,0 -0.4,-0.79 0,-1.59 0.4,0.4 2.39,0.8 2.39,0 7.55,2.78 23.85,0.8 24.64,13.51 -1.99,2.39 -2.39,6.76 -3.98,9.54 -1.19,0.4 0,-0.8 -0.8,-0.8 -0.79,0 -0.79,0.8 -0.79,1.19 -0.4,0 -0.4,-0.4 -0.4,-0.79 -0.79,0 -0.4,1.19 -0.79,1.99 -0.4,0 -0.4,-0.79 -0.4,-0.79 -0.8,0.4 -0.8,1.59 -1.19,1.99 -0.4,-0.4 0,-1.99 -0.4,-1.99 -0.8,1.19 -1.19,1.19 -1.99,1.99 -0.4,0 -0.4,-0.4 -0.4,-0.8 -0.8,0 -0.8,1.19 -0.8,1.99 -0.79,-0.8 -1.99,-1.59 -2.38,0.4 -0.8,-3.18 0.79,-5.57 0.4,-9.14 -17.88,9.14 -32.59,22.26 -45.71,36.57 -1.19,3.58 -3.18,5.96 -5.17,9.14 0.4,1.59 0,2.38 -0.8,3.58 2.78,2.38 8.74,3.97 12.72,3.97 16.69,3.98 31.4,9.14 40.94,19.48 1.99,3.58 4.77,5.97 3.58,10.73 -1.99,8.74 -12.32,16.3 -20.27,18.68 -6.76,3.97 -15.11,5.96 -24.64,6.76 -0.8,-0.79 -2.38,-0.79 -3.97,-0.79 -9.54,-1.99 -13.51,-10.33 -18.68,-17.09 0.8,-0.8 -0.79,-1.19 -1.59,-2.38 0.8,-0.79 1.59,0.4 1.99,0.8 0.4,-0.8 1.19,-2.38 0.8,-3.18 5.17,-5.57 10.73,-11.13 18.68,-14.31 0,0.79 0.4,1.19 0.79,1.59 0,1.19 -0.79,1.19 -1.99,1.59 0.8,0.8 1.19,-0.4 1.59,0.4 0,0.8 -0.79,0.8 -1.59,1.19zm-17.49 9.54l0 0c-0.4,0 -0.4,0.4 0,0 -0.79,0.4 -0.4,0 -0.79,-0.4 0.79,0.4 0.79,0.4 0.79,0.4zm1.99 -63.99l0 0c0.4,0 0,-0.4 0,0 -0.4,0.4 0,0.4 0,0zm1.19 -1.59l0 0c-0.4,0.4 -1.59,1.19 -0.4,1.19 -0.4,-0.8 1.59,-1.19 0.4,-1.19zm0.4 1.99l0 0c-0.4,0 -0.4,0.4 -0.4,0.8 -1.19,0 0,1.19 0,0 0.4,0 0.4,-0.4 0.4,-0.8 0.4,0 0.4,0 0,0 0.79,-0.4 0.4,-0.79 0,0 0,-0.4 0,0 0,0zm1.59 -1.99l0 0c-0.8,0 -0.8,0.8 -1.19,0.8 1.19,0.4 0.79,-0.4 1.19,-0.8zm2.78 56.44l0 0c-0.4,0 -0.4,0 0,0 0,0.4 0,0 0,0zm0 -62.8l0 0c0,-0.8 0.79,-1.19 1.59,-1.19 0,0.4 0,0.79 -0.4,0.79 -0.4,-0.4 -0.4,0.4 -1.19,0.4zm1.19 1.59l0 0c3.18,-2.38 5.57,-5.17 8.35,-7.95 -2.78,2.38 -5.96,5.17 -8.35,7.95 -1.19,0 0,1.59 0,0zm2.39 76.71l0 0c-0.4,0.4 -0.8,0.8 -0.8,1.19 0.8,0 1.19,-1.19 0.8,-1.19zm1.59 -19.48l0 0c0,0.4 -0.4,0.4 0,0 -0.4,0 0,0 0,0zm2.38 -0.8l0 0c0.4,-0.79 0.79,-1.19 1.59,-1.19 -0.4,0.4 -0.4,1.19 -1.59,1.19zm1.99 -66.38l0 0c-0.4,-0.4 -0.79,-0.4 -0.79,0.4 0.79,0.8 0.79,0 0.79,-0.4zm0 65.19l0 0 0.8 -65.19c0,-0.8 1.19,0 0.79,-1.19 1.19,0 0,-0.8 0,0 0,-0.4 -1.59,0.4 -0.79,1.19l-0.8 65.19zm0.8 -63.6l0 0c0.79,-0.4 2.38,-1.59 2.38,-2.38 -0.4,0.8 -1.19,0.8 -1.99,0.8 0,1.19 0,1.59 -0.4,1.59zm1.19 85.06l0 0c0,0.8 -0.4,0.8 -0.4,0.8 0,-0.8 0.4,-0.8 0.4,-0.8zm1.19 -89.43l0 0c-0.4,0.4 0,0.79 0,0 0.4,0 0.4,0 0.4,-0.8 0.79,0 1.19,0 1.19,-0.79 -0.79,0 -0.79,0.4 -1.19,0.79 0,0.4 -0.4,0.4 -0.4,0.8zm1.59 1.19l0 0c-0.79,0 -1.19,0.79 -1.59,1.19 1.59,0 1.59,-1.19 1.59,-1.19 0.4,0 0.4,0 0,0 0.8,-0.4 0.4,-0.8 0,0zm0.8 -3.58l0 0c0,0.8 -0.4,0.8 0,1.19 0,-0.4 0.4,-0.79 0,-1.19zm0.8 2.78l0 0c0.79,-1.59 2.38,-1.59 2.78,-3.18 1.19,0 0,-0.8 0,0 -1.19,0.8 -3.18,1.99 -2.78,3.18zm1.19 88.24l0 0c0,0.4 -0.79,0.4 -0.79,0.4 0,-0.4 0.4,-0.4 0.79,-0.4zm0.4 -93.01l0 0c-0.4,0.79 -0.8,0.79 -0.8,1.59 0.4,0 1.99,-0.8 0.8,-1.59zm2.38 -1.19l0 0c-0.79,0 -1.59,0.8 -0.79,1.19 -0.4,-0.8 1.19,-0.4 0.79,-1.19zm1.19 0.8l0 0c-0.4,0 -0.79,0 -0.79,0.4 0.79,0 0.79,0 0.79,-0.4zm3.18 92.21l0 0c0,-0.4 0,-0.4 0,-0.8l-0.4 0c0,0.4 0,0.4 0.4,0.8zm2.38 -96.19l0 0c-0.4,0.4 -0.8,0.4 -0.8,1.19 0.4,0 0.8,-0.8 0.8,-1.19zm-0.8 -0.8l0 0c0.4,0 0.4,0 0.8,0 0.4,-0.79 0.4,-0.79 -0.4,-0.79 0,0 0,0.4 -0.4,0l0 0.79zm2.39 0.4l0 0c-0.8,0 -1.19,0 -1.19,0.4 0.8,0 0.8,0 1.19,-0.4zm3.18 -2.39l0 0c-1.19,0.4 -1.59,0.8 -1.99,0.8 1.19,0.4 1.19,0 1.99,-0.8zm-1.59 -0.4l0 0c0.8,-0.4 1.99,-0.8 2.38,-1.19 -0.4,-0.8 -0.4,-0.8 -0.8,-0.8 0,-0.4 -0.4,0 0,0 0,0.8 -1.19,0.8 -1.59,1.99zm2.38 0l0 0c0.79,0.79 1.19,0 0.79,-0.4 -0.4,0 -0.79,0 -0.79,0.4 -1.59,0 0,1.59 0,0zm3.58 -3.98l0 0c-1.19,0.8 -2.38,0.8 -2.78,1.99 1.19,-0.4 2.38,-0.79 2.78,-1.99zm-0.4 1.99l0 0c0,0.8 -1.19,0 -0.8,0.8 0,0 1.19,-0.4 0.8,-0.8zm0.4 1.99l0 0c-0.79,0 -0.79,0 -1.19,0.79 0.8,-0.4 1.19,-0.4 1.19,-0.79 0,0 0,-0.4 0,0 0.8,-0.8 0,-0.8 0,0 0,-0.4 0,-0.4 0,0zm0.4 -3.18l0 0c0,-0.8 0.4,-0.8 0.4,-0.8 -0.4,0 -0.4,-0.4 -0.8,-0.4 0,0 0,0.4 0.4,1.19zm1.19 1.59l0 0c0.8,0.4 0.8,0 0.8,-0.8 -0.4,0.4 -0.4,0.4 -0.8,0.8 0,0.4 0.4,0.4 0,0zm17.49 9.14l0 0c-0.79,1.19 -0.79,5.17 0.4,5.57 0,-1.59 0,-4.37 -0.4,-5.57zm-0.4 6.36l0 0c0.4,0.8 0,0.8 0.8,0.8 0,-0.4 -0.4,-0.4 -0.8,-0.8z"/>
    <path fill="#1D2155" fill-rule="nonzero" d="M662.59 189.6c0.4,-0.79 -1.59,-1.19 0,-1.19 0,-0.79 -1.19,-0.4 -1.19,-0.79 -0.4,-0.8 0.8,-1.59 0,-1.59 0.8,-1.19 0.8,0 1.19,0 0.4,-1.19 -1.19,-0.8 -0.79,-1.59 0.79,0 0.79,-1.59 0.79,-2.39 -1.59,0 0,1.59 -0.79,1.59 -0.8,-1.19 -0.8,-2.78 0.79,-3.18 -1.59,-0.8 -0.4,-2.38 0.4,-3.97 0,-0.4 -0.4,0.4 -0.79,0 0.4,-0.4 0,-1.59 0.79,-0.79 -0.4,-1.59 -0.79,-3.58 -0.79,-5.17 1.59,0 0,0.8 0.79,1.19 0.4,-0.4 0.4,-0.8 0.8,-1.59 -0.8,-0.4 -1.19,-1.19 -1.59,-0.4 -1.19,-0.79 0.79,-0.4 0.79,-1.19 0.4,0 0.4,0.4 0.8,0.4 0.8,-0.8 -0.8,-0.8 -1.19,-1.19 1.19,-0.8 -0.79,-2.78 1.19,-2.78 -0.8,0.79 -0.8,2.38 0,3.18 0.4,-1.19 0.8,-3.58 -0.8,-3.97 0.8,-0.79 0.8,-1.19 1.19,-1.99 -0.79,-1.59 -1.19,-2.78 -0.79,-3.97 0.4,0.4 0.4,0.8 0.79,1.19 0.8,0 0.4,-1.99 -0.79,-1.19 0,-1.59 0,-1.19 0,-2.78 0.79,0 0.79,0.8 0.4,1.19 1.59,0 0.8,-1.59 0.8,-1.99 -0.4,0 -0.4,0 -0.4,0.4 -0.4,-0.4 -0.79,-1.59 -0.4,-2.38 0.8,0.4 0.4,0.4 0.4,0.8 1.59,-1.19 1.59,-5.96 1.19,-9.54 -0.79,0.8 0,1.59 -1.19,1.59 0.8,-0.79 0.8,-1.59 0.8,-2.78 0.79,0 0.79,0.4 0.79,0.8 1.19,-0.8 0.4,-3.97 0.8,-4.77 -1.99,-1.59 -0.8,-6.36 1.59,-7.15 -0.8,-0.8 -0.8,0 -1.59,-0.4 0,-0.79 1.19,-0.4 1.19,-1.19 -0.4,-0.4 -0.4,0.4 -1.19,0 0.4,-0.4 0,-0.8 -0.4,-0.8 0,-0.8 1.19,-0.8 0.79,-1.59 0.8,0 0.8,0.4 0.8,0.79 0.79,-0.79 -0.8,-3.97 0.4,-5.56 0.8,0 -0.4,1.19 0.4,1.59 1.19,-0.4 0.8,-1.59 0.8,-2.38 -0.4,-0.79 -0.4,0.8 -0.8,0.4 -0.4,-1.19 0.4,-1.19 1.59,-1.19 -2.38,-1.99 -0.79,-4.77 0.4,-7.55 0,0 0.4,0 0.79,0 0,-0.4 0,-0.79 0,-0.79 -0.79,0 -0.79,0.79 -0.79,0.79 -0.8,-0.4 0,-1.99 0,-2.38 0.4,0 0.4,0.4 0.4,1.19 0.8,-0.79 1.59,-3.97 0.8,-4.37 1.19,-0.79 1.19,-2.78 0.79,-3.18 0.8,0 0.8,-1.59 0.4,-1.59 0,-0.4 0.4,-0.79 0.4,-1.19 -0.4,-0.4 -0.4,0 -0.8,0 0.4,-0.79 0.8,-2.38 0.8,-3.58 0.4,-0.4 0.79,0.79 1.19,-0.4 -1.19,-0.4 -0.79,-1.99 -0.79,-2.39 0.79,0 0.79,0 1.19,0 0,-0.8 0,-1.99 -1.19,-1.59 1.19,-2.38 0.79,-5.56 2.39,-5.96 -0.8,0 -0.8,-0.8 -0.8,-1.19 0.4,-0.4 1.19,-0.4 1.59,-0.8 -0.4,-0.79 -0.4,-0.79 -0.79,-0.79 0,-0.4 0,-0.8 0,-1.59 0.79,-0.4 0.4,0.79 0.79,1.19 0.8,-0.4 0.4,-2.39 0.8,-3.18 -0.8,-0.4 0,1.19 -0.8,0.8 0.4,-2.38 0.8,-3.97 0.8,-5.96 0.79,0 0.79,0.4 0.79,0.4 0.8,-0.4 0.4,-1.19 0.8,-1.99 -0.8,0 -0.8,0.4 -0.8,0.79 0.4,-2.38 0,-5.17 1.99,-6.76 0,-1.19 -1.19,-0.8 -0.8,-1.99 0.4,0 0.8,0.4 1.19,0.4 -0.8,-1.19 -0.4,-2.39 0.4,-3.98 0.4,0 0.4,0 0.8,0 -0.4,-0.4 -0.8,0 -0.8,0 -0.4,-0.4 0,-3.18 0.8,-3.18 0,-0.8 -0.4,-0.8 0,-1.99 1.59,-3.98 1.19,-9.14 3.18,-12.32 -0.8,-2.38 1.19,-5.17 0,-7.55 0.79,0 1.19,0.4 1.99,0.79 5.17,-2.78 11.92,0 16.69,0.8 0.79,0.79 0.79,2.38 1.99,2.38 0.4,5.57 0.8,11.13 -0.79,15.11 -2.39,21.07 -6.36,43.33 -10.73,63.2 0,0.4 0,0.8 0.4,0.8 -1.59,5.17 -0.79,12.32 -3.18,18.28 0,5.97 -2.38,12.72 -1.99,18.68 -1.59,2.38 0,9.14 -2.38,11.92 0.4,13.12 -3.58,32.99 2.38,46.11 5.57,-2.38 7.55,-8.35 12.32,-11.53 0,0.4 0,0.4 0.4,0.4 -0.8,1.59 1.19,3.58 -0.4,5.17 0,0.79 0.4,-0.8 0.8,-0.4 -1.99,2.39 0.79,4.37 -0.8,7.95 0.4,0 0.8,0 0.8,0 0,0.79 -0.8,0.79 -0.8,1.59 0.4,0.4 0.4,-0.8 0.8,0 0,1.99 -1.99,2.39 -2.38,2.78 0,0.4 0.4,0.4 0.8,0.4 -2.78,2.38 -8.35,3.58 -12.72,3.58 0,-0.8 -1.19,-0.4 -1.19,-0.8 -6.36,-2.39 -13.51,-3.98 -17.49,-8.74 -2.38,-3.18 -5.17,-7.55 -4.77,-12.32 -1.19,-2.39 -0.4,-5.57 -1.99,-7.95 0.79,0 0.79,0 0.79,-0.4 -1.19,-2.38 0,-4.77 -0.4,-7.55 -1.19,0.79 -1.19,0.79 -0.8,0.79zm-0.4 1.19l0 0c0.4,0.8 0,1.19 0.4,1.59 0.4,-0.79 0.4,-1.19 -0.4,-1.59zm0 7.55l0 0c0,-0.4 0.4,0.8 0,0 0.4,-0.4 0,-0.4 0,0zm0.79 -35.38l0 0c0,0 0.8,-0.4 0.8,-1.19 0.4,0 0.4,1.99 -0.8,1.19zm0.8 25.44l0 0c0.4,0.4 -0.8,1.19 0,1.59 0.4,-0.4 0.8,-1.59 0,-1.59zm0 -9.94l0 0c0,1.59 -0.8,3.18 0,3.98 0.4,-0.79 1.19,-3.18 0,-3.98zm0 4.37l0 0c0.4,1.19 -0.8,0.8 0,1.59 0.8,1.19 0.8,-1.59 0,-1.59zm0 -6.76l0 0c0.4,0 0.8,0 0.8,-0.4 -0.4,0.4 -0.8,0.4 -0.8,0.4zm0.4 10.73l0 0c0,-0.4 0,-0.4 0,-0.79l-0.4 0c0,0.4 0,0.4 0.4,0.79zm0.4 -15.5l0 0c-0.8,0.79 -0.8,3.18 -0.4,3.97 0.4,-1.19 1.59,-2.78 0.4,-3.97zm0 -19.08l0 0c-0.8,0 0,-0.8 -0.4,-1.99 0.4,-0.4 0.8,1.59 0.4,1.99zm0.4 -5.17l0 0c0,0.4 0,0.8 -0.8,0.8 0,-0.4 0,-0.8 0,-1.19 0.4,0.4 0.4,0.4 0.8,0.4zm0 19.88l0 0c-0.4,1.19 -0.8,3.18 -0.4,3.97 0.4,-1.19 1.19,-2.38 0.4,-3.97zm0 -2.39l0 0c0,0.8 -0.8,0.8 -0.4,1.59 1.59,0.4 1.59,-1.59 0.4,-1.59zm0 -3.18l0 0c0,0.4 -0.8,1.99 0.79,2.78 0,-1.19 0.8,-1.59 -0.79,-2.78zm0.79 -21.07l0 0c0.4,0 0.4,0.79 0.4,1.59l-0.4 0c-0.79,-1.19 -0.79,-1.19 0,-1.59zm0 1.99l0 0c-0.79,0 -0.79,-0.79 0,-0.79 0,0.4 0.4,0.4 0,0.79zm0.4 17.49l0 0c0,-1.19 0.4,-1.99 0,-2.78l0.4 0c-0.8,-2.78 1.19,-4.77 0,-5.57 0,1.59 -1.19,3.58 -0.4,5.57 -0.4,0 -1.59,2.78 0,2.78zm1.59 -24.25l0 0c-0.8,0 -0.8,0 -0.8,0 -0.4,1.19 -0.4,1.99 -0.4,2.78 1.59,0 0.4,-1.99 1.19,-2.78zm0 6.36l0 0c-0.8,3.58 -1.59,5.96 -0.8,9.54 -0.4,-3.58 1.19,-6.36 0.8,-9.54zm0.4 -7.15l0 0c0,-0.8 -0.8,-0.8 0,-0.8 -1.19,-0.79 -1.59,0.8 -0.8,1.19 -0.4,-0.4 0.4,-0.4 0.8,-0.4zm0 1.99l0 0c0,1.19 -1.59,3.97 0,4.77 -0.4,-1.99 1.59,-3.57 0,-4.77zm0 -6.36l0 0c0,-0.4 0,-0.4 0,-0.8 0,0.4 0,0.4 0,0.8zm0 -5.57l0 0c-0.4,0.4 -0.4,1.59 0.4,1.59 0.4,-0.79 0.4,-0.79 -0.4,-1.59zm0.4 8.35l0 0c0.4,1.19 -0.79,2.38 -0.4,3.58 0.4,-1.19 1.59,-2.78 0.4,-3.58zm1.19 -15.9l0 0c0,1.19 -0.79,0.79 -0.79,1.99 1.19,0 1.19,-1.99 0.79,-1.99zm-0.79 15.5l0 0c1.19,-7.55 2.38,-15.1 3.58,-23.05 0.8,-0.8 0.8,-2.39 0.8,-3.58 -0.8,0.8 -1.19,3.18 -0.8,3.58 -1.99,7.95 -3.58,14.31 -3.58,23.05zm1.19 -17.88l0 0c-1.19,0.4 -0.4,1.59 -0.79,2.38 1.19,0 0.79,-1.59 0.79,-2.38zm0 -3.98l0 0c-0.4,0 0,-0.79 -0.4,-1.19 1.59,0 0.4,1.19 0.4,1.19zm0.4 -3.58l0 0c0,-0.8 0.4,-0.8 0.4,-1.59 1.19,0 0.4,1.59 -0.4,1.59zm1.19 -2.38l0 0c-1.19,0 -0.4,-1.99 0.4,-1.59 0,0.4 -0.4,0.4 -0.4,1.59zm1.59 -10.73l0 0c0,0.79 -0.8,0.79 -0.8,1.19 -0.4,0.4 0,-1.19 0.8,-1.19zm-0.4 7.15l0 0c0,-0.4 0,-0.8 0,-1.19l-0.4 0c0,0.4 0,0.8 0.4,1.19zm0.8 3.58l0 0 0 -0.79c-0.4,0 -0.4,0 -0.8,0l0 0.79c0.4,0 0.4,0 0.8,0zm1.99 -12.32l0 0c-1.59,2.78 -1.59,7.55 -2.38,10.73 1.99,-1.59 1.99,-7.95 2.38,-10.73zm-1.19 -3.58l0 0c-0.79,1.19 -0.79,2.78 -0.79,4.37 0.79,0 1.99,-3.97 0.79,-4.37zm1.59 0.4l0 0c0,0.79 -0.4,1.99 -0.4,2.78 0.4,0.4 1.59,-2.78 0.4,-2.78zm0.4 -3.18l0 0c0,0.8 -0.4,1.99 -0.8,3.18 1.59,0 1.99,-2.78 0.8,-3.18zm-0.4 -6.76l0 0c0.4,0 0.8,0 0.8,-0.4 -0.4,0 -0.8,0 -0.8,0.4zm1.59 6.36l0 0c0,-0.79 0,-1.19 -0.4,-0.79 0,0.4 -0.79,0.4 -0.79,0.79 0.79,0 1.19,0 1.19,0zm0 -8.35l0 0 -0.4 7.15c0.8,0.4 0.8,-1.19 0.4,-1.19 0,0.8 -0.4,0.8 -0.4,0.8 0,0 0,0 0,0.4l0.4 -7.15zm0.4 0.4l0 0c0,0.79 -0.4,1.99 -0.8,2.78 1.19,0.4 2.38,-2.78 0.8,-2.78zm1.19 -6.36l0 0c0,-0.4 0,-0.4 0,-0.79 -0.8,0 -0.8,0 -0.8,0 0,0.4 0,0.4 0,0.79 0,0 0,0 0.8,0zm0.4 -0.4l0 0c0,0.8 -0.4,1.99 -0.8,3.18 1.19,-0.79 2.39,-3.18 0.8,-3.18zm-0.4 4.37l0 0 1.19 -5.57 -1.19 5.57zm2.38 -9.14l0 0c0,-0.8 0,-0.8 0,-0.8 -0.4,0 -0.4,0 -0.79,0 0,0 0,0.4 0,0.8 0.4,0 0.4,0 0.79,0z"/>
    <path fill="#1D2155" fill-rule="nonzero" d="M779.05 117.66c-0.79,0 0,0.8 0,0.8 -1.99,5.56 -3.18,12.72 -5.56,18.28 0,8.74 -0.8,15.5 -0.8,24.64 1.19,8.35 1.19,19.08 7.15,25.44 12.72,-5.57 19.48,-17.09 28.62,-27.03 -0.4,-0.79 0.79,-0.79 0.79,-2.39 0.8,0 0.4,-1.19 1.59,-0.79 5.17,-8.35 10.73,-15.5 15.9,-23.05 0,-0.8 -0.79,-0.8 -0.4,-0.8 1.19,0.4 2.38,-0.79 1.99,-2.78 0.8,0 1.19,-0.8 1.59,0 0,-2.78 2.38,-3.98 3.18,-4.77 1.99,-2.78 5.17,-7.55 7.95,-10.73 0.4,0.79 0.8,0.79 0.8,1.19 -0.4,1.99 -0.8,3.18 0,4.77 -0.8,2.39 -2.38,5.57 -3.98,7.55 0.8,1.99 -0.8,3.97 -2.38,4.37 0.4,1.19 0.8,0 1.59,0 0,1.59 -1.59,1.19 -1.59,2.38 -0.4,0.79 -0.79,0.79 -0.79,0.79 0.79,0.4 1.19,0 0.79,-0.79 1.19,0.79 1.19,-1.19 1.99,-0.8 -0.8,1.99 -2.38,3.98 -3.58,5.96 1.19,-0.79 1.99,-2.38 3.18,-3.58 -0.79,1.59 -1.99,4.77 -3.18,5.57 0,0.4 0.8,0.4 0.8,0.79 -1.19,0.8 -1.59,2.78 -2.38,4.37 -0.79,0 -0.79,0 -0.79,0 -0.4,0.8 0.4,0.8 0.4,1.99 -1.99,1.99 -2.38,4.37 -3.97,5.96 -0.79,6.76 -7.55,12.32 -10.33,18.68 -8.75,9.54 -17.09,20.67 -34.19,21.07 -5.17,2.38 -8.34,-1.99 -12.32,-3.98 -3.58,-1.99 -7.55,-3.18 -9.14,-5.56 -3.98,-3.98 -6.76,-9.54 -7.55,-15.1 -0.4,-0.8 -0.4,-1.99 -0.79,-2.38 0,-1.99 -0.8,-4.37 0,-5.57 -0.8,-0.8 -0.8,-1.59 -1.19,-1.99 0,-0.79 0.4,-1.99 0,-2.38 -0.79,0.79 -1.19,1.99 -1.59,2.78 -0.4,0 -0.4,-0.4 -0.8,-0.4 -7.55,11.93 -15.1,24.25 -26.63,32.59 -2.39,0.4 -4.37,1.59 -7.55,1.99 -9.94,-0.4 -13.91,-6.76 -19.48,-12.32 0.8,-0.79 -1.59,-2.78 0,-3.58 -0.79,-0.8 -1.59,-1.99 -0.79,-3.18 0.79,-2.39 0.4,-3.98 0.4,-7.55 0.4,0 0.8,0.8 0.8,0.8 0,-0.8 0.4,-1.59 -0.4,-1.19 -0.4,-0.8 0,-1.19 0.8,-0.8 0,-0.8 0,-0.8 -0.4,-0.8 0,-0.4 0.4,-0.4 0.79,-0.79 -1.99,-3.97 2.38,-9.14 2.38,-13.51 0.4,0 0,0.79 0,0.79 0.79,-0.4 1.59,-2.38 0.4,-2.38 0,-1.59 0.8,0 1.19,-0.8 0,-2.38 1.19,-3.57 0.8,-5.56 0.4,0.4 0.4,0.8 0.79,0.4 0.8,-3.58 3.97,-7.55 4.37,-11.92 0.8,0.4 -0.79,0.8 0,1.99 1.99,-3.18 2.38,-6.36 4.77,-9.14 1.19,-0.79 1.19,-2.38 1.99,-3.58 0.4,0 0.4,0.4 0.79,0.79 0.4,-1.19 1.19,-3.18 2.39,-4.37 0.4,0.4 0.4,0 0.4,0 0.4,0 0,-0.4 0,-0.4 0.8,-1.99 2.38,-3.18 3.58,-3.98 0,0.4 0,0 0,0 1.59,-2.78 3.97,-4.77 5.57,-7.15 0,-0.4 -1.19,-0.4 -0.8,-1.19 1.59,0.79 3.97,0.79 4.77,-0.8 8.35,-2.38 17.49,-1.59 21.46,4.37 -0.4,0.8 -0.79,0.8 -1.19,0.8 0.8,2.38 0.8,5.17 1.59,8.34 1.59,-0.79 1.99,-2.38 2.78,-3.58 0.8,0.79 -0.79,1.99 -0.79,3.18 1.59,-2.39 3.58,-3.98 3.98,-7.55 0.79,0 1.99,-1.19 1.19,-1.99 0.8,-3.97 3.98,-7.15 4.37,-10.33 5.57,-0.79 12.32,0 17.09,2.38 2.38,4.77 -1.19,9.94 -2.78,13.91 0.8,0.79 0.4,2.38 -0.4,3.18 0.79,1.19 0.79,1.19 0.79,0.4zm-79.89 45.71l0 0c0.4,0 0.8,0 0.8,0 -0.8,0 -0.8,0 -0.8,0zm5.96 -23.45l0 0c0,0.4 -0.4,0.4 0,0 -0.4,0 0,0 0,0zm0 3.58l0 0c1.19,0 0,-1.19 0,0 -0.4,0.4 0,0.4 0,0zm1.19 -1.59l0 0c0.4,-0.4 0,-0.4 0,0 -1.19,0 0,0.79 0,0zm3.58 -7.55l0 0c-0.8,-0.4 -1.19,0.79 -0.8,1.19 0,-0.79 0.8,-0.79 0.8,-1.19zm1.19 47.3l0 0c4.37,-2.38 7.15,-5.57 9.14,-10.33 0,0.79 0,0 0,0 2.78,-2.39 3.98,-5.97 6.76,-8.75 0,0.8 0.79,-0.4 0,0 2.38,-3.58 3.97,-7.15 6.36,-9.54 0,1.59 1.19,0.4 0,0 0.79,-1.99 1.59,-3.97 3.18,-5.17 0,1.19 -1.59,1.99 -0.79,2.78 0.4,-0.8 2.38,-3.18 0.79,-2.78 0.8,-2.38 2.78,-5.56 4.37,-7.55 0,1.59 -1.59,1.99 -1.59,3.58 1.59,-0.79 2.38,-2.78 3.18,-4.77 0.4,0 0.8,-0.8 0.8,-1.19 -0.8,0 -0.8,0.4 -0.8,1.19 -0.79,0 -0.79,1.99 -1.19,0.79 2.39,-4.77 5.57,-8.74 7.55,-13.91 -0.8,-1.99 -1.99,-3.58 -2.78,-5.17 0,-0.4 -0.8,-0.79 -0.8,-0.79 0,-0.4 0,-1.19 -0.4,-1.19 -1.19,-1.99 -1.59,-5.56 -4.37,-6.76 -2.38,2.38 -5.17,5.57 -5.56,8.74 -10.73,17.89 -21.07,36.57 -23.85,60.82zm1.99 -56.44l0 0c-0.8,0 0,-0.79 0,-1.59 1.19,0.4 -0.4,0.8 0,1.59zm5.57 -6.36l0 0c-0.4,0 -0.4,0 0,0 -0.8,0 -0.8,-0.4 0,0zm1.19 -3.18l0 0c-0.4,0.4 -0.4,0.4 -0.8,0.4 -0.4,-0.4 0.4,-0.4 0.8,-0.4zm0 -0.4l0 0c0.4,-0.4 0.4,-1.19 0.79,-1.19 0,0.79 -0.4,1.19 -0.79,1.19zm3.97 54.06l0 0c0.4,0 -0.4,-1.19 0,0 -1.59,0 0,1.19 0,0zm0.4 -60.02l0 0c0.79,0.4 -0.4,1.19 -0.8,1.19 0.4,-0.79 0.8,-0.79 0.8,-1.19zm-0.4 1.59l0 0 11.13 42.13 0 -0.79 -0.8 0 0 0.79 0.8 0 -11.13 -42.13zm11.13 10.73l0 0c0,-0.4 0,-0.4 0,0zm3.97 24.64l0 0c-1.19,0 -1.19,1.19 -1.59,1.59 0.79,0 1.19,-0.8 1.59,-1.59zm1.59 -34.98l0 0c0.4,0 0.79,0 0.79,0 -0.4,0 -0.79,0 -0.79,0zm5.96 21.07l0 0c-0.8,1.99 -1.99,3.58 -3.18,5.17 1.59,-0.8 3.58,-3.58 3.18,-5.17zm0 -8.35l0 0c0.8,-0.79 -0.8,-1.59 -0.4,-2.38 -0.8,0 -0.8,-0.4 -0.8,-0.8 -0.4,0.8 1.19,2.38 1.19,3.18zm1.19 0.8l0 0c-0.4,0.4 -0.4,0 -0.8,0 0,-0.4 0.8,-0.4 0.8,0zm-0.4 -2.78l0 0c0,0.8 0.79,1.99 1.59,2.38 0,-1.19 -0.8,-1.99 -1.59,-2.38zm0.79 3.18l0 0c0,0.4 -0.79,0.4 -0.79,0.4 0,0 0.79,0 0.79,-0.4zm0 5.96l0 0c-0.79,-0.79 0.8,-0.79 0.8,-1.99 0,0 0,0 0.4,0 0,-0.4 0.79,-1.19 0.4,-1.99 -0.4,0.79 -0.79,0.79 -0.79,1.99 -0.8,0 -1.99,1.59 -0.8,1.99zm4.77 43.33l0 0c0.4,-0.4 0.4,-0.8 0.8,-1.59 1.19,0 0.4,1.59 -0.8,1.59zm1.59 -54.85l0 0c0.4,0.8 0.8,-0.79 0,-0.79 0,0 0,0.4 0,0 0,0.4 0,0.79 0,0.79zm0.4 50.48l0 0c0.4,0 0.79,0 0.79,-0.8 -0.79,0.8 -0.79,0.8 -0.79,0.8zm1.59 -52.47l0 0c0,0.8 -0.8,0.8 0,1.19 0,0 0.4,-0.4 0,-1.19zm2.78 -6.36l0 0c-0.8,0.79 -1.19,2.38 -1.99,3.58 -0.79,-1.99 1.99,-3.58 2.39,-5.57 0.4,0 0.4,0.4 0.8,0.4 -0.4,0.4 -1.19,0.4 -1.19,1.59zm1.59 -3.58l0 0c0.4,0.4 -0.4,1.59 0.4,1.59 0,-0.79 0.8,-1.19 0.8,-1.99l0.4 0c0,0 0,-0.4 0,-0.8 -0.4,0 -0.4,0.4 -0.4,0.8 -0.4,0.4 -0.8,0.4 -1.19,0.4zm1.99 -1.99l0 0c0.8,0 -0.4,-0.8 0,0 -0.4,0.4 0,0.4 0,0zm63.2 51.67l0 0 5.96 -15.5c-0.4,1.59 1.59,0.4 0.79,0l-0.79 0 -5.96 15.5zm7.15 -9.14l0 0c-0.4,0 -0.8,-0.4 -0.4,-0.79 0.4,0.4 0.4,0.79 0.4,0.79z"/>
    <path fill="#1D2155" fill-rule="nonzero" d="M887.16 106.13c1.99,1.59 0.4,-1.19 0.4,-2.78 -0.79,0 -1.59,0 -1.19,0.8 -0.79,-0.8 -0.4,-2.38 -1.19,-2.38 3.97,-1.99 13.91,-5.17 17.88,1.59 -0.4,0.4 -1.19,0.4 -1.19,1.59 -0.4,0.8 0.8,0.8 0.8,1.19 -0.8,7.55 1.99,14.31 1.99,20.27 -0.79,6.36 0,12.72 0.8,17.49 1.59,11.92 0.79,26.23 3.97,37.76 -0.4,0 -0.4,0.79 -0.4,0.79 0.4,0 0.4,-0.79 0.4,-0.79 0.8,0 -0.4,1.59 0.4,0.79 0.79,-1.99 2.38,-2.38 2.78,-3.98 -0.4,0 -0.4,0.8 -1.19,0.8 1.59,-1.59 2.38,-3.58 3.18,-5.57 -0.8,0 -0.8,-1.59 0.4,-0.79 0.4,-1.19 0.4,-2.38 0.8,-3.98 0,0.79 0,1.19 0.79,1.19 0.8,-3.18 2.38,-5.57 2.38,-9.14 0.4,0 0.4,0 0.8,-0.4 0,0.4 0.4,0.4 0.4,0.4 0,-0.4 -0.4,0 -0.4,-0.4 -0.8,-0.4 0,-0.8 0,-1.59 0.4,0 0.4,0.79 0.4,0.79 1.99,-2.78 2.38,-7.15 4.77,-9.14 0,-0.4 -0.4,-0.8 -0.4,-1.19 3.98,-6.76 7.15,-14.31 10.73,-22.26 0.8,0 0.8,-0.4 1.59,-0.4 -0.4,-0.79 -0.4,-1.19 -0.4,-1.99 0.8,0 0.8,-0.8 1.59,-0.8 0,-1.19 -1.19,-0.4 -1.19,-0.79 0,-1.59 0.4,-0.8 1.59,-0.8 0.8,-3.58 3.98,-7.55 4.37,-11.13 0.4,0 0.8,0 0.8,0.79 0.8,-1.59 2.38,-2.38 2.38,-4.77 0.4,-0.8 0.4,0 0.79,0.4 1.19,-1.59 0.8,-3.58 1.59,-4.77 0.4,0 0.4,0.79 0.4,0.79 0.79,0 0.79,-0.4 0.79,-1.59 0.4,0 0.8,0 0.8,-0.4 -0.4,-0.4 -0.8,0 -0.8,0.4 0,-2.38 4.37,-4.37 3.97,-7.55 0.4,-0.79 0.79,-0.79 1.19,-0.4 -0.8,-0.8 0,-1.99 0.79,-3.18 1.59,0.79 -0.4,1.19 -0.4,2.38 0.8,0 2.78,-2.78 0.8,-2.78 0.79,-0.4 0.79,-0.79 1.19,-1.59 1.19,-0.4 0,1.19 0.8,1.19 0.79,-0.79 0.79,-2.39 1.19,-2.39 0.79,-0.79 0.4,0.8 0.79,0.8 0.8,-0.4 -0.4,-1.59 0.8,-2.39 2.38,-0.79 3.98,-1.99 5.57,-3.18 3.97,0 6.76,1.19 9.54,2.78 0,1.19 0.8,2.38 1.99,2.38 -0.8,6.36 -3.98,9.54 -6.76,13.51 0.4,0.4 0.4,0.8 0.4,1.59 -7.55,8.35 -12.32,19.48 -18.28,28.62 -8.74,16.3 -15.5,34.18 -23.05,51.67 -2.78,7.55 -5.57,13.91 -12.32,17.09 -0.79,0.4 -1.19,0.4 -1.19,0.79 -2.38,0.8 -3.18,0.8 -4.77,0.8 -0.4,-0.4 -0.79,-0.8 -2.39,-0.4 -1.59,-0.8 -2.38,-1.19 -5.17,-0.8 0,-0.79 -0.8,-0.79 -1.99,-0.79 0,-0.8 -0.8,-1.19 -1.19,-0.8 -2.38,-1.19 -3.98,-3.98 -7.55,-3.98 0.4,-0.79 -0.8,-0.79 -0.4,-1.59 0.8,-0.4 0.4,0.8 0.8,0.8 -0.4,-1.99 -1.59,-5.57 -1.59,-9.54 0,-0.4 -0.4,0.4 -0.8,0 0,-0.79 0.8,-0.4 0.8,-1.19 -2.38,-20.67 -3.98,-40.94 -3.98,-63.2 0,-0.79 -1.19,0 -1.19,-0.79 1.59,-1.99 1.59,-9.14 0.8,-11.13 -0.8,0.8 -0.8,-1.19 -0.8,-2.78zm-0.8 3.18l0 0c-0.79,0 -0.4,-1.19 -0.4,-1.59 0.4,0 0.4,1.19 0.4,1.59zm0.8 -3.58l0 0c-0.8,0.4 -0.8,-0.8 -0.8,-1.59 0.8,-0.8 0.8,1.19 0.8,1.59zm0 13.12l0 0c-1.19,0 0,-0.8 -0.8,-0.8 0.8,-0.79 0.8,0.8 0.8,0.8zm0 4.37l0 0 -0.8 0 0.8 0zm0 1.99l0 0c0,0.4 -0.8,0.4 -0.8,0.4 0,-0.4 0.8,-0.4 0.8,-0.4zm0 -9.94l0 0c-0.8,-1.19 0,-3.18 0.4,-3.97 0,0.79 -0.4,2.78 -0.4,3.97zm0.8 3.58l0 0c0,0.79 -0.8,2.78 0.4,2.78 0,-1.19 0.79,-2.78 -0.4,-2.78zm0 15.1l0 0c0,0.4 0,0.8 0.4,0.8 0,-0.4 0,-0.8 -0.4,-0.8zm0 1.99l0 0c0,0.79 0.4,0.79 0.79,0.79 0,0 0.4,-1.19 -0.79,-0.79zm0.4 3.97l0 0c0,0.4 0,0.4 0,0.8 1.19,0 1.19,-1.19 0,-0.8zm1.19 2.39l0 0c0,0 0,-0.4 0,-0.79 -0.4,0 -0.4,0 -0.8,0 0,0.4 0,0.79 0,0.79 0.4,0 0.4,0 0.8,0zm0 2.78l0 0c0,-0.8 -0.4,-0.8 -0.8,-0.8 0,0.8 0,1.19 0.8,0.8 -0.4,0.4 -0.4,0 0,0zm-0.4 1.19l0 0c0,0.79 0,2.38 0.4,1.59 0,-0.4 0,-2.38 -0.4,-1.59zm0.4 22.66l0 0 1.19 -13.51c-0.79,0 -0.79,0 -1.19,0 0,0.4 0,0.8 0,1.19 1.19,0 0.79,-0.8 1.19,-1.19l-1.19 13.51zm0 -10.73l0 0c0.79,1.19 0,3.57 0.79,5.17 0.4,-1.99 0.8,-4.37 -0.79,-5.17zm1.19 9.54l0 0c-0.79,1.19 -0.79,2.78 0.4,3.18 0,-1.59 -0.4,-2.38 -0.4,-3.18zm0.4 4.37l0 0c0,0.8 0,1.99 0.4,2.38 0,-1.19 0.8,-3.18 -0.4,-2.38zm0.4 6.36l0 0c0,0 0,0.4 0,0.8 1.19,0.4 1.19,-1.59 0,-0.8zm0.8 3.18l0 0c0,0.4 -0.8,1.19 0,1.19 0,0 0.79,-0.79 0,-1.19zm0.4 5.96l0 0c0,0.79 0.4,1.99 0.79,1.99 0,-0.4 0.4,-1.99 -0.79,-1.99zm1.19 -12.72l0 0c0,-0.8 -0.4,-0.8 -0.8,-0.8 0,0.4 -0.4,0.4 -0.4,0.8 0.79,-0.4 0.79,0 1.19,0zm16.3 6.76l0 0c-0.8,-0.8 0.4,-1.59 0.4,-2.38 0.4,0.4 -0.4,1.59 -0.4,2.38zm0 1.99l0 0c0,0.4 0,0.4 0,0 0.4,0 0.4,-0.8 0.4,-0.8 0.4,-0.4 0,-0.4 0,0 -0.4,0 -0.4,0 -0.4,0.8zm2.39 -8.35l0 0c-0.4,0.8 -0.4,0 -0.8,0 0,-0.4 0.8,-0.4 0.8,0zm-0.4 -0.79l0 0c0.4,-1.99 1.99,-3.58 1.99,-5.96 0.79,0.79 -0.8,4.37 -1.99,5.96zm2.78 -4.77l0 0c0,0 0,-0.4 0.8,-0.4 0,0 0,0.4 -0.8,0.4zm0.8 -2.78l0 0c0.79,0.4 0,1.59 0,2.38 -0.8,-1.19 0.4,-1.19 0,-2.38zm6.76 -17.09l0 0c0,0.4 -0.4,0.4 -0.79,0.4 0.4,-0.4 0.4,-0.4 0.79,-0.4zm0.8 5.57l0 0c0,-0.4 0.4,0 0,0 0.4,-0.4 0,-0.4 0,0zm1.99 -10.34l0 0c0,-0.8 0,-0.8 0.4,-1.19l0.4 0c0,0.4 0.4,1.59 -0.8,1.19zm2.78 -5.17l0 0c0,0 -0.4,0 0,0 0,0 0,0.4 0,0zm0 5.17l0 0c0,-0.8 0,-0.8 -0.4,-0.8 0,0.8 0,1.19 0.4,0.8zm0 -6.36l0 0c0.4,-0.4 0.8,-0.8 0.8,-1.99 0.79,0.8 0.4,2.78 -0.8,1.99zm1.59 2.78l0 0c0,-0.79 0,-0.79 0,-0.79l-0.4 0c0.4,0 0.4,0 0.4,0.79zm0.4 -1.99l0 0c0.79,0.4 0.79,-1.19 0.4,-0.79 0,0 0,0.4 -0.4,0l0 0.79zm3.18 -10.33l0 0c0,0.8 -0.4,0 -0.8,0 0.4,-0.4 0.8,-0.4 0.8,0zm0.4 -3.18l0 0c0,-0.8 0.4,-1.19 0.8,-1.19 -0.4,0.4 0,1.19 -0.8,1.19zm1.19 0.4l0 0c0,0.4 0,0.8 0,0.8 -0.8,0 -0.8,0 -0.8,0.4l-0.4 0c0,-0.4 0,-0.4 0,-0.8 0,0 0,0 0,-0.4 0.8,0 1.19,0 1.19,0zm0.4 -2.78l0 0c-0.4,0 -0.4,-0.79 0,-0.79 0,0 0,0 0.4,0 0,0.4 -0.4,0.79 -0.4,0.79zm0.4 -1.99l0 0c0.8,0.79 0.4,0.79 0,1.19 0,-0.4 0,-0.8 0,-1.19zm3.98 -4.37l0 0c-0.4,0.4 -0.4,0.4 -0.79,0.4l0 -0.4c0.79,0 0.79,0 0.79,0zm1.59 1.59l0 0c0.4,0 0.8,0 0.8,0 -0.8,0 -0.8,0 -0.8,0zm6.76 -12.72l0 0c0,-0.4 0,-0.4 0,-0.79 -0.4,0 -0.4,0 -0.8,0 0,0.4 0,0.4 0,0.79 0.4,0 0.4,0 0.8,0zm0 -3.18l0 0c-0.8,0 0,-1.19 0.79,-1.19 0,0.8 -0.4,0.8 -0.79,1.19zm3.18 -4.37l0 0c-0.4,0.79 -0.4,1.99 -1.59,1.59 0.4,0 0.8,-0.8 0.4,-1.59 0.4,0 0.8,0 1.19,0zm10.73 -10.73l0 0c-0.79,0 -1.59,0.79 -0.79,1.59 -0.4,-0.8 0.79,-0.4 0.79,-1.59z"/>
    <path fill="#1D2155" fill-rule="nonzero" d="M1033.43 123.22c-0.4,-0.8 -1.19,1.59 -1.59,1.99 0,-1.99 2.38,-3.97 3.58,-5.96 1.59,0.8 1.99,1.59 2.38,0 0.79,1.59 -0.8,3.18 -0.8,5.56 -1.19,0.4 0.4,1.59 -0.79,2.39 0.4,0.79 0.79,-0.8 0.79,-0.8 -1.59,3.97 -2.38,7.55 -3.97,11.13 0,0.79 0.79,0 0.79,-0.8 -1.99,4.77 -3.98,10.73 -5.17,15.5 -0.8,0 -0.8,0 -0.8,0 0.8,-1.19 -0.8,-0.4 0,0 -1.99,3.18 -2.38,5.57 -3.97,9.14 -0.4,0.4 -0.79,0.4 -0.79,0 0,1.19 -1.19,1.59 -0.8,3.18 -0.4,0 -0.79,0 -0.79,0 -1.19,4.77 -5.57,7.95 -7.15,13.52 -0.4,0 -1.19,0 -1.19,-0.4 -0.8,0.4 0,0.79 0,1.99 -3.97,5.17 -8.74,10.73 -13.51,15.9 -0.4,0.4 -0.4,0.4 -0.4,1.19 -0.79,-0.79 -0.79,0.8 -0.79,0.8 -1.59,-0.8 -0.8,1.59 -1.59,1.59 -0.4,-0.4 -0.8,-0.4 -1.19,-0.4 -0.8,1.99 -3.58,2.39 -3.97,5.57 -4.37,3.18 -10.34,5.57 -17.49,5.57 -2.38,-1.19 -5.56,-1.59 -7.95,-2.78 -0.8,-0.4 -1.19,-1.59 -2.39,-2.38 -8.74,-5.17 -12.72,-10.34 -13.51,-21.07 -0.8,-3.98 0,-9.54 0.79,-12.32 -0.4,2.38 0,4.37 -0.4,7.95 0.79,-2.78 0.4,-7.15 0.79,-9.94 -1.19,-0.79 0,1.19 -0.79,0.8 0.4,-0.4 0,-1.59 0,-2.38 0.4,0.8 0.79,0.8 1.59,0.4 0.4,2.78 -0.8,7.55 0,10.73 0.79,-11.13 2.39,-27.03 5.96,-36.97 0,-5.57 2.38,-9.14 2.78,-13.52 -1.99,2.39 -2.78,8.35 -3.18,10.73 -1.19,-2.78 1.19,-5.56 1.19,-8.74 -2.39,3.18 -1.99,8.74 -3.98,12.32 0.79,-10.33 5.57,-19.08 7.55,-28.62 0.8,-0.4 1.19,-1.19 1.99,-1.59 0.8,-0.8 -0.79,-0.4 -0.79,-1.59 4.37,-0.79 15.5,-3.18 19.08,1.99 -1.19,2.78 -1.59,6.36 -2.39,9.14 -0.79,3.97 -0.79,7.95 -1.19,11.13 -0.4,0.79 -1.19,0.79 -1.59,1.59 -0.79,2.38 -0.79,5.57 -1.59,7.95 -0.79,4.37 -2.78,9.94 -3.18,15.11 -0.79,3.18 -0.79,9.94 -1.99,12.72 -0.8,10.33 -1.59,19.87 0.79,28.22 3.58,-2.38 5.96,-5.56 9.54,-8.34 -0.8,1.19 -1.99,2.38 -3.18,3.97 13.91,-12.32 25.04,-28.62 36.17,-44.12 0.4,0 0.4,-0.8 1.19,0 2.78,-7.15 8.34,-11.53 11.52,-18.68 2.39,-1.59 5.17,-4.37 6.36,-8.35zm-82.67 44.12l0 0c0.4,-0.8 0.4,-1.59 1.59,-1.59 -1.19,0.8 -0.8,1.59 -1.59,1.59zm0 14.31l0 0c0.4,0.4 0,1.19 0.79,0.79 -0.4,-0.4 -0.4,-0.79 -0.79,-0.79zm0.79 -17.09l0 0c-0.79,-0.4 0,-1.59 0,-1.99 1.19,0.4 0,1.99 0,1.99zm1.19 3.18l0 0c0,0.8 0.4,1.59 -0.4,1.59 0,-0.79 -1.19,-1.59 0.4,-1.59zm-0.4 12.72l0 0c0,1.59 -0.8,2.38 0,3.58 0,-1.19 0.79,-2.78 0,-3.58zm0 -20.67l0 0c0.4,0 0.4,0.4 0.79,0.4 -0.4,1.19 -1.59,-0.4 -0.79,-0.4zm0.79 -4.77l0 0c2.78,-3.97 1.19,-9.14 3.98,-12.32 -2.38,7.15 -3.18,15.11 -4.77,23.05 -0.4,-4.37 -1.19,-8.74 0.79,-12.72 0.4,0.8 -0.4,0.8 0,1.99zm-0.79 29.42l0 0c0,1.19 0,2.38 0,3.97 0.79,-0.79 0.4,-3.97 0,-3.97zm0.4 5.17l0 0c0,-0.4 0,-1.19 -0.79,-0.79l0 0.79c0.79,-0.4 0.79,0 0.79,0zm0.4 -34.18l0 0c-0.4,1.19 -0.79,3.18 -0.4,3.97 0.4,-0.8 1.59,-2.78 0.4,-3.97zm-0.4 34.58l0 0c0,0.8 0,2.39 0.8,1.19 -0.8,0.4 0,-1.59 -0.8,-1.19zm0 2.39l0 0c0.8,0 -0.4,1.99 0.8,1.59 0.79,-0.4 -0.4,-2.38 -0.8,-1.59zm2.78 -47.7l0 0c-0.79,2.78 -0.79,5.17 -1.99,8.34 0,-3.18 0.79,-6.76 1.99,-8.34zm4.37 -13.91l0 0c0,0 0.4,-0.79 0,-1.59 0.4,0 0.4,0 0.4,0 0,-0.4 0.8,-1.19 0.4,-1.99 -0.4,0.79 -0.8,1.19 -0.8,1.99 -0.79,0.8 -0.79,1.59 0,1.59zm1.19 -5.96l0 0c0,0.4 -0.4,0.4 -0.4,1.19 1.19,0.4 1.19,-1.59 0.4,-1.19zm0.79 1.59l0 0c0.4,0.8 -0.79,0.8 0,1.59 0,-0.79 0.8,-1.59 0,-1.59zm0.8 -6.76l0 0c0,0.8 -0.8,1.99 0,2.39 0,-0.4 1.59,-1.59 0,-2.39zm3.18 -6.36l0 0c0,-0.4 0,-0.4 0,0zm26.23 -38.56l0 0c-2.38,2.78 -3.97,4.37 -6.36,5.97 -3.97,0 -5.56,2.38 -9.54,2.38 -1.59,-6.36 -2.38,-13.91 -2.38,-21.07 4.77,-0.4 7.15,-3.98 13.91,-3.98 3.98,1.19 6.36,3.98 7.95,7.55 -0.4,3.58 -0.8,5.96 -1.59,9.14 -1.19,0.4 -1.59,-1.19 -1.99,0zm-9.94 116.46l0 0c-0.79,0 0.8,-0.79 0,-1.19 1.19,0.4 0,0.8 0,1.19zm1.99 -1.99l0 0c-0.8,-0.8 0,-1.59 0.79,-1.59 0.4,1.19 -1.19,0.79 -0.79,1.59zm1.19 -1.59l0 0c-0.4,-0.8 0.79,-0.4 0.79,-1.19 0,1.19 -0.79,1.19 -0.79,1.19zm0.79 -1.59l0 0c0.8,0 0.8,0.79 0,0.79 0,0 0,0 -0.4,0 0,-0.79 0.4,-0.79 0.4,-0.79zm1.19 -1.59l0 0c0.4,-0.8 0.8,-0.8 1.59,-1.59 -0.4,1.19 -0.4,1.99 -1.59,1.59zm4.37 -4.37l0 0c0,0.4 0,0.4 0,0 -0.4,0.4 -0.4,0 0,0zm1.19 -0.4l0 0c-0.8,-1.99 2.39,-4.37 3.98,-5.57 -1.19,1.99 -3.18,2.78 -3.98,5.57zm3.98 -6.36l0 0c0,0 0,0.79 -0.4,0.79 0.4,-0.79 0.4,-0.79 0.4,-0.79zm0.79 -1.19l0 0c0.8,0.4 -0.4,1.19 -0.79,1.19 0,-0.8 0.4,-0.8 0.79,-1.19zm0.8 0l0 0c-0.8,-0.79 0.4,-1.19 0.4,-1.59l0.4 0c0,0.8 -0.4,0.8 -0.79,1.59zm2.78 -5.17l0 0c0.4,0 0.79,0.4 0.79,0.8 -0.79,0 -0.79,0 -0.79,0 0,0 0,-0.4 0,-0.8zm1.19 -0.4l0 0c-0.79,0 0,-0.4 0,-0.8 0.4,0 0,0.8 0,0.8zm1.99 -2.78l0 0c-1.19,0 0.79,-1.99 1.59,-2.38 -0.8,1.59 -0.8,1.59 -1.59,2.38zm1.59 -2.38l0 0c0,-0.4 0,-0.4 0,-0.79 0.4,0 0.4,0 0.4,0 0,0.79 0,0.79 -0.4,0.79zm2.39 -2.78l0 0c-0.4,0.8 -1.19,1.99 -2.39,2.38 1.19,-1.19 0.79,-2.78 2.39,-2.38zm3.97 -6.36l0 0c0.8,0.79 -0.4,1.59 -0.79,1.59 -0.4,-0.8 0.79,-0.4 0.79,-1.59zm1.19 -0.8l0 0c-0.79,0 0.4,-1.59 0.8,-1.59 0,0.4 -0.4,1.19 -0.8,1.59zm1.99 -3.18l0 0c0,0.8 0,0.8 -0.79,0.8 0,-0.8 0,-0.8 0.79,-0.8zm-0.79 3.18l0 0c0,0.8 0,0.8 0.8,0.8 -0,-0.4 0.4,-1.19 -0.8,-0.8zm0.79 -3.18l0 0c0,-0.79 0.8,-0.79 0.8,-1.99 0,1.59 0,1.99 -0.8,1.99zm2.39 -1.99l0 0c-1.19,-0.8 0.8,-1.59 0.4,-2.38 1.19,0.8 -0.4,1.59 -0.4,2.38zm0.8 -2.78l0 0c0,-0.8 0.79,-1.19 1.19,-1.59 0,0.4 0,1.59 -1.19,1.59zm3.18 -3.97l0 0c0,0.4 0,0.4 0,0.8 -0.4,0 -0.4,0 -0.8,0 0,-0.4 0,-0.4 0,-0.8 0.4,0 0.4,0 0.8,0zm0.79 -0.79l0 0c-0.4,0 0,-1.99 0.8,-1.59 0,0.8 -0.8,0.8 -0.8,1.59zm3.18 -4.77l0 0c0.4,-0.4 0,-0.79 0.4,-0.79 0,0.4 0,0.79 -0.4,0.79zm1.59 -3.18l0 0c0.4,1.19 -0.4,1.19 0,1.59 -1.19,0.4 -1.19,-1.99 0,-1.59zm0 0c0,-0.79 0.4,-0.79 0.79,-0.79 -0.4,0.4 0,0.79 -0.79,0.79zm1.59 -1.59l0 0 -0.8 0 0.8 0zm0.4 -0.4l0 0c-1.59,-0.8 0.4,-1.99 1.19,-2.38 -0.4,0.8 -0.8,1.99 -1.19,2.38zm1.59 -3.18l0 0c0.8,0 0.4,1.59 -0.4,0.79 0.4,-0.4 0.4,-0.4 0.4,-0.79zm0 3.18l0 0c0.4,0 0.8,0 0.8,-0.4 -0.4,0 -0.8,0 -0.8,0.4zm4.77 -9.54l0 0c-0.79,1.19 -1.59,1.99 -1.99,3.58 1.19,-0.8 2.38,-2.39 1.99,-3.58z"/>
    <path fill="#1D2155" fill-rule="nonzero" d="M1009.19 164.56c0,-0.4 0.8,-1.59 -0.79,-1.19 0.4,-6.36 3.18,-10.73 4.37,-17.09 -0.4,-0.4 -1.99,0 -2.39,0 -1.59,-1.59 1.19,-0.4 1.59,-0.8 0.4,-0.4 0,-2.38 0.4,-0.4 1.59,-0.8 1.59,-2.38 2.38,-3.58 1.19,-0.4 0.79,0.8 1.19,0.8 0.4,-1.59 -0.4,-0.8 -1.19,-1.59 1.99,-0.8 1.99,-5.96 3.98,-6.76 -0.8,-1.19 1.59,-2.38 0.79,-4.77 0.8,1.59 2.38,-1.19 2.78,-3.98 0.8,0 0.8,0 1.19,0.4 -0.8,-1.19 0.8,-1.99 1.19,-2.78 0,0.4 0,0.79 0.4,0.79 0.8,-0.4 0.4,-0.79 -0.4,-0.79 0,-0.4 0.79,-0.8 0.4,-0.8 1.59,-1.19 2.78,-3.18 4.37,-4.77 -0.4,-0.8 -0.79,0.79 -1.59,0.4 0.8,-0.4 0,-1.19 0,-1.59 12.32,-4.37 31.4,-15.9 41.74,-2.78 3.97,-5.57 6.36,-12.32 9.14,-18.68 0,-2.78 0,-3.58 0.8,-5.17 -0.8,-2.78 0.79,-5.57 0.79,-7.55 0.4,-0.4 0.8,-0.4 0.8,0 -1.59,-2.38 -0.8,-4.77 0.4,-7.55 0.8,0 0.8,-0.79 0.8,-0.79 -0.8,0 0,0.4 -0.8,0.79 -0.4,0 -0.4,0.8 -0.4,0.8 1.59,-25.04 7.15,-47.7 10.73,-69.16 0,-1.59 -1.19,-1.19 -0.79,-2.78 2.38,-0.79 4.77,-1.59 7.15,-1.99 0.4,0 0.4,0.79 0.4,1.19 1.19,0 0.79,-2.39 1.59,-0.8 0.4,0 0.79,-0.8 0.79,-0.8 0.8,0.8 1.59,0 1.59,-0.79 0.79,0 0.79,0.79 0.4,0.79 5.17,0 8.74,3.98 9.54,9.14 0,1.19 -0.4,2.78 -0.79,3.98 -3.97,21.07 -7.95,42.93 -10.73,63.99 0,0.4 0.8,0.79 0.8,1.19 -0.8,9.14 -3.58,19.48 -3.18,29.02 0,2.39 -1.19,3.98 -1.19,6.36 0,15.1 -2.38,32.2 -1.19,44.91 0,0.79 -0.79,0.79 -0.79,1.19 0.79,14.31 -0.8,30.21 5.17,45.71 0.8,-0.4 0,-1.99 1.59,-1.59 0,-1.99 0.8,-4.77 1.59,-6.36 0.8,0.8 2.38,1.99 1.19,3.58 0.8,0 1.19,0 1.59,-0.8 0.4,0 -0.4,1.59 -0.4,1.59 0.4,1.59 2.39,0.4 1.59,1.59 1.99,-1.59 3.58,2.38 2.78,3.98 0,0.8 0.8,0 0.8,0 0,0.8 0,1.59 0,1.99 0.4,0 0.4,-0.79 0.79,-0.79 0.4,0 0,1.59 -0.4,1.99 0.4,0.4 1.19,1.59 1.19,2.38 0,0 0,2.39 0,1.99 -1.19,8.35 -16.69,7.55 -21.07,2.38 -0.79,0 -1.19,0 -1.99,0 -1.99,-2.38 -5.17,-3.97 -7.55,-5.56 -5.17,-6.76 -7.55,-16.3 -7.95,-27.03 0,-1.59 0.8,-1.99 -0.8,-2.38 0.8,-5.57 -0.4,-11.13 0,-16.69 1.19,1.19 0.8,3.18 0.8,3.98 0.8,-9.54 0.4,-19.48 0.8,-29.02 -0.8,0.79 -0.8,2.38 -0.8,3.97 -0.4,-0.4 -0.8,-0.79 -0.8,-1.19 -5.56,10.73 -12.32,20.27 -17.09,31.8 -9.14,13.51 -19.87,32.59 -39.75,26.63 -0.4,-0.79 -0.79,-1.19 -1.99,-0.79 -2.38,-3.98 -7.55,-4.77 -9.14,-9.14 -0.8,-9.94 -0.8,-18.68 1.59,-27.03 1.19,-1.19 1.59,-1.19 1.99,-1.19zm-1.19 6.76l0 0c0.4,0 0.8,0 0.8,-0.4 -0.4,0 -0.8,0 -0.8,0.4zm1.19 -8.35l0 0c0.8,0 0.8,0 0.8,-0.4 0,0 -0.8,0 -0.8,0.4zm1.19 -3.18l0 0c0,-0.4 0,-0.4 0,-0.79l-0.4 0c0,0.4 0,0.4 0.4,0.79zm3.58 -13.12l0 0c-0.4,-0.4 -0.4,-0.4 -0.79,-0.4l0 0.4c0.4,0 0.4,0 0.79,0zm36.57 -32.2l0 0c-7.95,5.96 -11.93,15.9 -17.09,25.44 0,0.8 0.4,0.8 0.4,1.59 -5.96,13.51 -9.14,27.03 -11.13,41.33 1.19,1.99 0,4.77 0.8,7.15 12.32,-9.93 17.88,-27.03 27.42,-40.54 3.98,-8.74 9.14,-15.5 12.72,-23.85 -1.59,-0.4 -2.38,0 -3.98,0 -1.19,-3.98 -3.58,-5.97 -5.17,-9.94 -0.79,0 -1.19,-0.8 -2.38,-1.59 0,0.79 0,1.19 0,1.59 -0.8,0 -0.8,-1.19 -1.59,-1.19zm-26.63 12.72l0 0c0,0 0.4,0 0,0 0.4,0 0,0 0,0zm8.35 -10.73l0 0c0.8,0 0.8,0 0.8,-0.79 0,0 -0.8,0 -0.8,0.79zm3.57 61.61l0 0c0.4,-0.4 0.8,-0.79 0.4,-1.19 -0.4,0.4 -0.4,0.8 -0.4,1.19 -0.4,0 0,0.4 0,0zm0.8 -1.59l0 0c1.19,0 -0.4,-1.59 0,0 -0.4,0 0,0.4 0,0zm1.19 -1.99l0 0c-1.59,1.59 1.19,-0.4 0,0zm1.59 -1.59l0 0c0.4,-0.8 1.19,-1.59 1.59,-3.18 0.4,0 -0.4,-0.4 0,0 -1.19,0.8 -1.99,2.78 -1.59,3.18zm1.59 -3.98l0 0c0.8,0.4 1.19,-1.19 0.4,-1.19 0,0.8 0,0.8 -0.4,0.8 0,0 0,0 0,0.4zm1.99 -3.18l0 0c0.8,0 -0.4,-1.19 0,0 -1.19,0 0,1.19 0,0zm3.98 -5.96l0 0c-1.19,-0.4 -0.79,0.4 -1.19,0.8 0.8,0.4 0.8,-0.8 1.19,-0.8zm2.38 -4.77l0 0c-0.8,0 -2.38,1.99 -1.19,2.78 0,-1.59 0.79,-2.38 1.19,-2.78zm0.79 -1.99l0 0c0,0.8 -0.79,0.8 -0.79,0.4 -0.4,1.59 1.59,0 0.79,-0.4zm1.19 -2.78l0 0 0 0.79c-0.4,0 -0.4,0.4 -0.4,0.8 -0.8,0 0,1.19 0,0 0.4,0 0,-0.4 0.4,-0.8l0 -0.79c1.19,-0.8 1.59,-1.19 1.59,-2.39 1.19,0.4 0.8,-1.99 0.4,-1.59 0.79,0.79 -0.4,0.79 -0.4,1.59 0,1.19 -1.59,1.19 -1.59,2.39zm3.58 -5.97l0 0c-0.8,0 -0.4,1.19 -0.8,1.59 0.8,0 0.8,-0.8 0.8,-1.59 0.79,-0.4 0.79,-0.79 1.19,-0.79 0,-1.59 0.8,-1.59 0.8,-2.38 -0.8,0 -1.99,1.59 -0.8,2.38 -1.19,-0.8 -0.79,0 -1.19,0.79zm3.18 -5.56l0 0c0,0 -0.4,0 -0.4,0.79 -0.8,0 0,0.4 0,0 0.4,0 0.4,0 0.4,-0.79 0.4,0 0.4,0 0,0 0.79,-0.8 2.38,-2.39 1.59,-2.78 -0.8,0.79 -1.59,0.79 -1.59,2.78zm2.38 -3.58l0 0c0.4,-0.4 0,-0.4 0,0 -0.4,0 0,0.4 0,0zm0.4 -1.19l0 0c0,-0.4 0,0 0,0 -0.4,0.4 0,0.4 0,0 0.79,-0.79 0.79,-1.99 1.19,-2.78 0.79,0 0.4,-0.79 0.79,-0.79 -0.79,0 -0.79,0.4 -0.79,0.79 0,0.8 -1.19,1.19 -1.19,2.78zm3.18 -6.76l0 0 -0.4 0.79c-0.8,-0.4 -0.8,1.59 0,0.8 0,0 0,-0.4 0,-0.8 0.4,0.4 0.79,0 0.4,-0.79 0.79,0 0.4,0 0,0zm9.54 -17.89l0 0c-0.4,0 0,0.4 -0.4,0.8l0 0.79c-0.79,0 -1.59,0.8 -0.79,0.8 0,-0.8 0.79,-0.8 0.79,-0.8 0,-0.4 0,-0.4 0,-0.79 0.4,0 0.4,-0.8 0.4,-0.8 0.4,-0.4 0.4,-0.4 0.4,-0.79 0.79,0 -0.4,-1.19 0,0 -0.4,0.4 -0.4,0.4 -0.4,0.79zm1.59 -1.99l0 0c0,-0.4 0,-0.8 -0.8,-0.8 0,0.8 -0.4,1.19 0,1.19 0,-0.4 0.8,-0.4 0.8,-0.4zm0 56.44l0 0c-1.59,-0.8 0.4,-3.97 -0.8,-5.56 1.59,0.4 0,4.37 0.8,5.56zm0.4 -19.08l0 0c0,0.79 0,0.79 0,0.79 -0.4,0 -0.4,0 -0.8,0 0,-0.4 0,-0.4 0,-0.79 0.4,0 0.4,0 0.8,0zm-0.4 12.72l0 0c-1.19,-0.4 0.4,-2.38 -0.8,-3.58 1.19,0.4 0.8,2.78 0.8,3.58zm0.4 -5.17l0 0c-1.19,-0.8 -0.4,-3.97 -0.4,-4.77 0.79,0.79 -0.8,3.58 0.4,4.77zm0 18.29l0 0c0,0.8 -0.4,2.38 0.79,2.78 -0.79,-1.19 -0.4,-1.99 -0.79,-2.78zm0.4 -10.73l0 0c0.4,2.38 0.8,4.37 1.19,1.19 -0.8,0.4 0,-1.19 -1.19,-1.19zm0 3.58l0 0c0,0.79 0.4,1.59 0.8,1.99 0.4,-0.4 0.4,-1.59 -0.8,-1.99zm0 21.07l0 0c0,1.19 0,0.79 0,1.99 1.19,0.4 1.19,-1.99 0,-1.99zm0.4 -32.59l0 0c0,0.4 -0.4,1.59 0.8,1.19 0,-0.79 0,-1.19 -0.8,-1.19zm0 22.26l0 0c0,0.8 -0.4,1.19 0.8,1.19 0,-0.79 0,-0.79 -0.8,-1.19zm0.8 -29.02l0 0c-0.4,1.19 -0.4,2.78 -0.8,3.98 1.19,-0.8 0.8,-2.38 0.8,-3.98 0.4,-1.19 0.4,-2.38 0.4,-3.58 0,-1.19 0.4,-2.78 0,-3.18 -0.4,0.8 -0.79,1.99 0,3.18 -0.4,1.19 -0.4,1.99 -0.4,3.58zm-0.8 10.34l0 0c0.8,1.19 -0.79,2.38 0.8,3.18 -0.8,-1.59 0.8,-2.78 -0.8,-3.18zm0 17.49l0 0c0.8,0 0.8,0 0.8,-0.4 0,0.4 -0.8,0.4 -0.8,0.4zm0 17.88l0 0c0,0.8 0,0.8 0.8,0.8 0,-0.4 0,-0.8 -0.8,-0.8zm1.19 -36.97l0 0c0,0.4 -0.4,0.4 0,1.19 0.8,0.4 0.8,-1.59 0,-1.19zm0.8 -11.92l0 0c0.79,-0.4 0.79,0.4 0.79,0 0,-0.4 -0.79,-0.4 -0.79,0zm1.99 -52.07l0 0c-1.59,1.59 1.59,-0.4 0,0zm0.8 -7.95l0 0c0,0.4 -0.8,1.99 0,2.39 0.4,0 0.79,-2.39 0,-2.39zm-0.4 2.78l0 0c0,0.4 0,0.8 0,1.19 0.8,0.4 0.8,-1.19 0,-1.19zm1.19 -13.12l0 0c0.8,0 0.8,0 0.8,-0.4 0,0 -0.8,0 -0.8,0.4zm0.8 -5.17l0 0c0.4,0.79 -0.8,2.38 0.4,3.97 0.4,-1.59 0.4,-3.18 -0.4,-3.97zm0.4 11.92l0 0c0,0.4 -0.79,1.59 0,1.99 0,-0.79 0.4,-1.59 0,-1.99zm0.4 -13.12l0 0c-1.59,1.59 1.59,-0.4 0,0zm0 -1.99l0 0c-0.4,-0.8 0.4,-0.8 0,-1.59 1.19,-0.4 -0.4,-1.99 0,0 0,0.4 -0.4,1.59 0,1.59zm1.59 -5.97l0 0c-0.4,0 -0.4,-0.4 0,0 0,-0.4 -1.19,-1.99 0,0 -1.59,-0.4 -0.4,1.19 0,0zm0 -3.58l0 0c0,0.4 -0.4,0.4 -0.4,1.19 0.4,0.4 0.4,-1.59 0.4,-1.19zm0 7.95l0 0c-0.4,0 -0.79,1.59 0,1.59 0,-1.19 0.8,-1.59 0,-1.59zm3.58 -27.42l0 0c0,-0.8 0.4,-1.19 0.4,-1.59 -1.59,-0.4 -0.4,1.19 -0.4,1.59 -1.59,0 0,1.59 0,0zm0 -3.58l0 0c0,0 -0.8,1.59 0,1.59 0,-0.79 1.19,-1.59 0,-1.59z"/>
    <path fill="#1D2155" fill-rule="nonzero" d="M1176.92 117.66c-0.8,0 0,0.8 0,0.8 -1.99,5.56 -3.18,12.72 -5.57,18.28 0,8.74 -0.8,15.5 -0.8,24.64 1.19,8.35 1.19,19.08 7.15,25.44 12.72,-5.57 19.48,-17.09 28.62,-27.03 -0.4,-0.79 0.8,-0.79 0.8,-2.39 0.79,0 0.4,-1.19 1.59,-0.79 5.17,-8.35 10.73,-15.5 15.9,-23.05 0,-0.8 -0.8,-0.8 -0.4,-0.8 1.19,0.4 2.38,-0.79 1.99,-2.78 0.79,0 1.19,-0.8 1.59,0 0,-2.78 2.38,-3.98 3.18,-4.77 1.99,-2.78 5.17,-7.55 7.95,-10.73 0.4,0.79 0.8,0.79 0.8,1.19 -0.4,1.99 -0.8,3.18 0,4.77 -0.8,2.39 -2.39,5.57 -3.98,7.55 0.8,1.99 -0.79,3.97 -2.38,4.37 0.4,1.19 0.79,0 1.59,0 0,1.59 -1.59,1.19 -1.59,2.38 -0.4,0.79 -0.8,0.79 -0.8,0.79 0.8,0.4 1.19,0 0.8,-0.79 1.19,0.79 1.19,-1.19 1.99,-0.8 -0.8,1.99 -2.39,3.98 -3.58,5.96 1.19,-0.79 1.99,-2.38 3.18,-3.58 -0.8,1.59 -1.99,4.77 -3.18,5.57 0,0.4 0.79,0.4 0.79,0.79 -1.19,0.8 -1.59,2.78 -2.39,4.37 -0.79,0 -0.79,0 -0.79,0 -0.4,0.8 0.4,0.8 0.4,1.99 -1.99,1.99 -2.38,4.37 -3.98,5.96 -0.79,6.76 -7.55,12.32 -10.33,18.68 -8.74,9.54 -17.09,20.67 -34.18,21.07 -5.17,2.38 -8.35,-1.99 -12.32,-3.98 -3.58,-1.99 -7.55,-3.18 -9.14,-5.56 -3.97,-3.98 -6.76,-9.54 -7.55,-15.1 -0.4,-0.8 -0.4,-1.99 -0.8,-2.38 0,-1.99 -0.79,-4.37 0,-5.57 -0.79,-0.8 -0.79,-1.59 -1.19,-1.99 0,-0.79 0.4,-1.99 0,-2.38 -0.79,0.79 -1.19,1.99 -1.59,2.78 -0.4,0 -0.4,-0.4 -0.79,-0.4 -7.55,11.93 -15.11,24.25 -26.63,32.59 -2.38,0.4 -4.37,1.59 -7.55,1.99 -9.94,-0.4 -13.91,-6.76 -19.48,-12.32 0.79,-0.79 -1.59,-2.78 0,-3.58 -0.8,-0.8 -1.59,-1.99 -0.8,-3.18 0.8,-2.39 0.4,-3.98 0.4,-7.55 0.4,0 0.8,0.8 0.8,0.8 0,-0.8 0.4,-1.59 -0.4,-1.19 -0.4,-0.8 0,-1.19 0.79,-0.8 0,-0.8 0,-0.8 -0.4,-0.8 0,-0.4 0.4,-0.4 0.8,-0.79 -1.99,-3.97 2.38,-9.14 2.38,-13.51 0.4,0 0,0.79 0,0.79 0.8,-0.4 1.59,-2.38 0.4,-2.38 0,-1.59 0.8,0 1.19,-0.8 0,-2.38 1.19,-3.57 0.8,-5.56 0.4,0.4 0.4,0.8 0.79,0.4 0.8,-3.58 3.98,-7.55 4.37,-11.92 0.8,0.4 -0.79,0.8 0,1.99 1.99,-3.18 2.39,-6.36 4.77,-9.14 1.19,-0.79 1.19,-2.38 1.99,-3.58 0.4,0 0.4,0.4 0.8,0.79 0.4,-1.19 1.19,-3.18 2.38,-4.37 0.4,0.4 0.4,0 0.4,0 0.4,0 0,-0.4 0,-0.4 0.79,-1.99 2.38,-3.18 3.58,-3.98 0,0.4 0,0 0,0 1.59,-2.78 3.97,-4.77 5.56,-7.15 0,-0.4 -1.19,-0.4 -0.8,-1.19 1.59,0.79 3.98,0.79 4.77,-0.8 8.34,-2.38 17.49,-1.59 21.46,4.37 -0.4,0.8 -0.79,0.8 -1.19,0.8 0.79,2.38 0.79,5.17 1.59,8.34 1.59,-0.79 1.99,-2.38 2.78,-3.58 0.79,0.79 -0.8,1.99 -0.8,3.18 1.59,-2.39 3.58,-3.98 3.97,-7.55 0.79,0 1.99,-1.19 1.19,-1.99 0.79,-3.97 3.97,-7.15 4.37,-10.33 5.56,-0.79 12.32,0 17.09,2.38 2.39,4.77 -1.19,9.94 -2.78,13.91 0.8,0.79 0.4,2.38 -0.4,3.18 0.8,1.19 0.8,1.19 0.8,0.4zm-80.29 45.71l0 0c0.4,0 0.8,0 0.8,0 -0.4,0 -0.8,0 -0.8,0zm6.36 -23.45l0 0c0,0.4 -0.4,0.4 0,0 -0.4,0 0,0 0,0zm0 3.58l0 0c1.19,0 0,-1.19 0,0 -0.4,0.4 0,0.4 0,0zm1.19 -1.59l0 0c0.4,-0.4 0,-0.4 0,0 -1.19,0 0,0.79 0,0zm3.58 -7.55l0 0c-0.79,-0.4 -1.19,0.79 -0.79,1.19 -0.4,-0.79 0.79,-0.79 0.79,-1.19zm1.19 47.3l0 0c4.37,-2.38 7.15,-5.57 9.14,-10.33 0,0.79 0,0 0,0 2.78,-2.39 3.97,-5.97 6.76,-8.75 0,0.8 0.79,-0.4 0,0 2.38,-3.58 3.98,-7.15 6.36,-9.54 0,1.59 1.19,0.4 0,0 0.8,-1.99 1.59,-3.97 3.18,-5.17 0,1.19 -1.59,1.99 -0.79,2.78 0.4,-0.8 2.39,-3.18 0.79,-2.78 0.8,-2.38 2.78,-5.56 4.37,-7.55 0,1.59 -1.59,1.99 -1.59,3.58 1.59,-0.79 2.38,-2.78 3.18,-4.77 0.4,0 0.79,-0.8 0.79,-1.19 -0.79,0 -0.79,0.4 -0.79,1.19 -0.8,0 -0.8,1.99 -1.19,0.79 2.38,-4.77 5.57,-8.74 7.55,-13.91 -0.8,-1.99 -1.99,-3.58 -2.78,-5.17 0,-0.4 -0.8,-0.79 -0.8,-0.79 0,-0.4 0,-1.19 -0.4,-1.19 -1.19,-1.99 -1.59,-5.56 -4.37,-6.76 -2.39,2.38 -5.17,5.57 -5.57,8.74 -10.73,17.89 -21.07,36.57 -23.85,60.82zm1.99 -56.44l0 0c-0.79,0 0,-0.79 0,-1.59 1.19,0.4 -0.4,0.8 0,1.59zm5.17 -6.36l0 0c-0.4,0 -0.4,-0.4 0,0zm1.59 -3.18l0 0c-0.4,0.4 -0.4,0.4 -0.8,0.4 -0.4,-0.4 0.4,-0.4 0.8,-0.4zm0 -0.4l0 0c0.4,-0.4 0.4,-1.19 0.79,-1.19 0,0.79 -0.4,1.19 -0.79,1.19zm3.58 54.06l0 0c0.8,0 0,-1.19 0,0 -1.19,0 0,1.19 0,0zm0.8 -60.02l0 0c0.79,0.4 -0.4,1.19 -0.8,1.19 0,-0.79 0.8,-0.79 0.8,-1.19zm-0.8 1.59l0 0 11.53 42.13 0 -0.79 -0.79 0 0 0.79 0.79 0 -11.53 -42.13zm11.53 10.73l0 0c0,-0.4 0,-0.4 0,0zm3.98 24.64l0 0c-1.19,0 -1.19,1.19 -1.59,1.59 0.8,0 1.19,-0.8 1.59,-1.59zm1.59 -34.98l0 0c0.4,0 0.8,0 0.8,0 -0.4,0 -0.8,0 -0.8,0zm5.96 21.07l0 0c-0.79,1.99 -1.99,3.58 -3.18,5.17 1.59,-0.8 3.58,-3.58 3.18,-5.17zm0 -8.35l0 0c0.8,-0.79 -0.79,-1.59 -0.4,-2.38 -0.8,0 -0.8,-0.4 -0.8,-0.8 -0.4,0.8 1.19,2.38 1.19,3.18zm1.19 0.8l0 0c-0.4,0.4 -0.4,0 -0.79,0 0,-0.4 0.79,-0.4 0.79,0zm-0.4 -2.78l0 0c0,0.8 0.79,1.99 1.59,2.38 0,-1.19 -0.8,-1.99 -1.59,-2.38zm0.79 3.18l0 0c0,0.4 -0.79,0.4 -0.79,0.4 0,0 0.79,0 0.79,-0.4zm0 5.96l0 0c-0.79,-0.79 0.8,-0.79 0.8,-1.99 0,0 0,0 0.4,0 0,-0.4 0.8,-1.19 0.4,-1.99 -0.4,0.79 -0.79,0.79 -0.79,1.99 -0.8,0 -1.99,1.59 -0.8,1.99zm4.77 43.33l0 0c0.4,-0.4 0.4,-0.8 0.79,-1.59 0.8,0 0.4,1.59 -0.79,1.59zm1.59 -54.85l0 0c0.4,0.8 0.79,-0.79 0,-0.79 0,0 0,0.4 0,0 0,0.4 0,0.79 0,0.79zm0 50.48l0 0c0.4,0 0.79,0 0.79,-0.8 -0.4,0.8 -0.79,0.8 -0.79,0.8zm1.99 -52.47l0 0c0,0.8 -0.79,0.8 0,1.19 0,0 0.4,-0.4 0,-1.19zm2.78 -6.36l0 0c-0.8,0.79 -1.19,2.38 -1.99,3.58 -0.8,-1.99 1.99,-3.58 2.38,-5.57 0.4,0 0.4,0.4 0.8,0.4 -0.4,0.4 -1.19,0.4 -1.19,1.59zm1.59 -3.58l0 0c0.4,0.4 -0.4,1.59 0.4,1.59 0,-0.79 0.8,-1.19 0.8,-1.99l0.4 0c0,0 0,-0.4 0,-0.8 -0.4,0 -0.4,0.4 -0.4,0.8 -0.4,0.4 -1.19,0.4 -1.19,0.4zm1.99 -1.99l0 0c0.79,0 -0.4,-0.8 0,0 -0.4,0.4 0,0.4 0,0zm63.2 51.67l0 0 5.96 -15.5c-0.4,1.59 1.59,0.4 0.8,0l-0.8 0 -5.96 15.5zm7.15 -9.14l0 0c-0.4,0 -0.8,-0.4 -0.4,-0.79 0.4,0.4 0.4,0.79 0.4,0.79z"/>
   </g>
  </g>
 </g>
</svg>
