<?xml version="1.0" encoding="UTF-8"?>
<!DOCTYPE svg PUBLIC "-//W3C//DTD SVG 1.1//EN" "http://www.w3.org/Graphics/SVG/1.1/DTD/svg11.dtd">
<!-- Creator: CorelDRAW -->
<svg xmlns="http://www.w3.org/2000/svg" xml:space="preserve" width="212.205mm" height="69.876mm" version="1.1" shape-rendering="geometricPrecision" text-rendering="geometricPrecision" image-rendering="optimizeQuality" fill-rule="evenodd" clip-rule="evenodd"
viewBox="0 0 8594.75 2830.13"
 xmlns:xlink="http://www.w3.org/1999/xlink"
 xmlns:xodm="http://www.corel.com/coreldraw/odm/2003">
 <g id="__x0023_Layer_x0020_1">
  <metadata id="CorelCorpID_0Corel-Layer"/>
  <g id="_2727543623312">
   <path fill="white" fill-rule="nonzero" d="M8207.39 2490.39c-877.93,0 -1293.73,-309.3 -1920.91,-515.32 3.18,27.13 2.22,56.75 -6.59,86.82 617.55,206.01 1036.85,512.79 1927.5,512.79 131.54,0 261.06,-11.05 387.36,-32.6l0 -84.52c-125.42,21.98 -254.5,32.82 -387.36,32.82zm-3251.08 -692.9c-1379.27,43.97 -1681.47,692.9 -2953.1,692.9 -555.62,0 -1045.38,-189.08 -1475.64,-592.88l-383.67 932.62 91.15 0 324.32 -788.35c388.99,344.13 899.21,532.92 1443.83,532.92 1296.16,0 1593.79,-649.55 2956.93,-692.97l-3.83 -84.23z"/>
   <path fill="white" fill-rule="nonzero" d="M8207.39 2704.33c-938.59,0 -1364.41,-325.37 -2005.21,-530.96 -25.58,20.85 -58.06,40.51 -98.98,58.13 683.49,202.76 1110.66,557.13 2104.18,557.13 130.89,-0.01 260.36,-10.12 387.36,-30l0 -84.64c-123.72,19.96 -252.48,30.33 -387.36,30.34zm-3132.87 -695.07c-1427.05,9.81 -1708.71,695.07 -3071.31,695.07 -496.91,-0.02 -911.81,-140.3 -1298.65,-387.14l-230.21 512.94 92.4 0 174.94 -389.83c374.47,228.02 809.53,348.31 1261.52,348.33 1382.13,0 1668.83,-686.12 3074.42,-695.09l-1.47 -83.33 -1.63 -0.96z"/>
   <path fill="white" fill-rule="nonzero" d="M6684.66 1501.47c-31.72,-23.17 -64,-41.81 -98.85,-54.45 0.99,15.82 2.37,31.21 3.92,46.38 55.24,133.2 136.63,251.86 236.72,352.84 16.73,6.88 33.82,13.75 50.47,20.61 79.22,32.7 157.6,64.94 237,95.69 -186.74,-107.24 -338.4,-266.55 -429.26,-461.07z"/>
   <path fill="white" fill-rule="nonzero" d="M8594.75 2028.21c-357.29,63.54 -701.68,-32.93 -960.08,-278.46 -8.07,-7.66 -19.49,-19.25 -32.17,-32.81 -39.77,-12.94 -83.24,-23.37 -133.84,-29.81 0.04,0.46 0.1,0.87 0.13,1.33 45.87,62.54 98.68,113.75 107.83,122.43 273.35,259.71 637.7,366.64 1018.14,303.01l0 -85.69z"/>
   <path fill="white" fill-rule="nonzero" d="M8594.75 1591.82c-108.57,-21.16 -204.09,-60.76 -273.64,-103.32 -10.28,-1.22 -20,-2.61 -30.85,-3.62 5.84,36.29 14.46,68.74 25.25,97.53 84.93,45.54 179.98,78.44 279.24,95.67l0 -86.27z"/>
   <path fill="white" fill-rule="nonzero" d="M8594.75 1368.52c-114.44,-24.59 -234.35,-58.24 -440.77,-58.24l-42.15 0 0 42.15c0,209.11 53.96,366.97 155.93,456.82 -382.26,-48.16 -435.24,-299.17 -929.55,-299.17l-42.15 0 0 42.15c0,127.67 6.16,255.73 51.93,358.49 -349.25,-220.58 -461.41,-653.92 -892.28,-653.92l-42.15 0 0 42.15c0,165.08 0.51,370.04 116.93,531.59 -130.06,-48.93 -267.12,-94.98 -418.27,-134.03 5.33,4.9 10.66,9.6 15.99,14.08 51.82,43.53 80.5,80.17 96.01,105.01 684.33,204.77 1089.84,541.72 1983.25,541.72 132.78,0 262.33,-12.63 387.28,-36.55l0 -85.91c-124.72,24.9 -254.29,38.15 -387.28,38.15 -595.1,0 -969.86,-154.68 -1366.64,-318.48 -286.05,-118.12 -341.27,-300.28 -342.9,-611.7 394.44,32.91 484.62,534.23 960.51,717.61 150.36,62.28 311.14,89.6 460.13,101.33 -80.84,-31.31 -158.04,-71.54 -231.53,-119.47 -194.41,-43.48 -301.58,-81.76 -306.43,-447.23 475.98,15.7 494.42,306.86 1027.29,306.86 63.52,0 125.91,-4.81 186.84,-14.06l0 -83.48c-3.33,-0.53 -6.68,-1.08 -10.06,-1.65 -269.56,41.52 -376.89,-136.33 -387.72,-407.63 179.1,4.39 287.22,36.61 397.78,59.6l0 -86.18zm-3721.65 214.55c-510.79,24.16 -872.97,127.08 -1192.94,247.46 116.42,-161.55 116.93,-366.51 116.93,-531.59l0 -42.15 -42.15 0c-430.88,0 -543.04,433.35 -892.28,653.92 45.77,-102.76 51.93,-230.82 51.93,-358.49l0 -42.15 -42.15 0c-494.22,0 -547.57,251.05 -929.55,299.17 101.96,-89.85 155.93,-247.71 155.93,-456.82l0 -42.15 -42.15 0c-325.21,0 -435.7,83.54 -648.37,83.54 -156.28,0 -303.02,-88.72 -404.98,-241.28 274.41,21.51 507.16,-195.99 507.16,-468.57 0,-377.14 -306.83,-683.97 -683.97,-683.97 -377.1,0 -683.96,306.78 -684.02,683.87 0,267.34 70.43,520.04 194.91,744.43l-337.4 902.53 0 240.8 392.87 -1050.93c322.24,499.62 923.13,836.61 1610.26,836.61 1223.45,0 1531.67,-631.86 2894.11,-690.89 -8.64,-24.97 -17.02,-52.92 -24.14,-83.35zm-4646.26 -899.1c0,-330.65 269.02,-599.67 599.67,-599.67 330.65,0 599.67,269.02 599.67,599.67 0,256.29 -246.7,442.04 -493.4,370.48l-93.16 -27.08 43.8 86.57c115.33,228.04 311.53,364.18 524.88,364.18 217.1,0 323.1,-76.12 605.39,-83.02 -10.77,269.47 -117.85,449.2 -387.73,407.63 -114.27,19.21 -202.21,18.24 -291.52,7.5 144.48,58.95 302.58,91.69 468.31,91.69 533.14,0 551.05,-291.15 1027.29,-306.86 -4.95,373.56 -120.54,405.65 -306.43,447.23 -73.49,47.92 -150.69,88.15 -231.53,119.47 148.99,-11.73 309.77,-39.04 460.13,-101.33 476.04,-183.44 566.02,-684.69 960.51,-717.61 -1.62,310.95 -56.61,493.49 -342.93,611.7 -396.78,163.8 -771.56,318.48 -1366.66,318.48 -979.43,0 -1776.22,-712.82 -1776.29,-1589.03z"/>
   <path fill="white" fill-rule="nonzero" d="M3384.19 1846.24c100.09,-100.98 181.49,-219.64 236.72,-352.84 1.56,-15.17 2.93,-30.55 3.92,-46.38 -34.85,12.64 -67.13,31.28 -98.85,54.45 -90.86,194.52 -242.53,353.83 -429.27,461.07 79.4,-30.75 157.78,-62.99 237,-95.69 16.65,-6.87 33.74,-13.73 50.47,-20.61z"/>
   <path fill="white" fill-rule="nonzero" d="M826.51 512.18c94.72,0 171.79,77.07 171.79,171.79l0 42.15 84.3 0 0 -42.15c0,-141.21 -114.88,-256.09 -256.09,-256.09 -141.21,0 -256.09,114.88 -256.09,256.09 0,350.68 148.52,668.95 397.33,851.34 282.23,206.95 654.58,193.37 927.39,47.1 10.79,-28.79 19.42,-61.24 25.25,-97.53 -10.85,1 -20.57,2.4 -30.85,3.62 -186.42,114.06 -560.09,207.57 -871.94,-21.17 -227.23,-166.59 -362.88,-459.43 -362.88,-783.37 0,-94.72 77.07,-171.79 171.79,-171.79z"/>
   <path fill="white" fill-rule="nonzero" d="M1280.9 2014.35c500.61,214.92 1004.04,128.22 1353.13,-203.46 9.15,-8.68 61.96,-59.89 107.83,-122.43 0.03,-0.46 0.09,-0.87 0.13,-1.33 -50.6,6.44 -94.07,16.87 -133.84,29.81 -12.68,13.56 -24.1,25.15 -32.17,32.81 -330.81,314.33 -802.54,384.37 -1261.86,187.12 -522.36,-224.22 -873.34,-727.71 -873.34,-1252.89 0,-212.69 173.05,-385.73 385.73,-385.73 212.69,0 385.73,173.04 385.73,385.73 0,94.72 -77.07,171.79 -171.79,171.79 -94.72,0 -171.79,-77.07 -171.79,-171.79l0 -42.15 -84.3 0 0 42.15c0,141.21 114.88,256.09 256.09,256.09 141.21,0 256.09,-114.88 256.09,-256.09 0,-259.17 -210.86,-470.03 -470.03,-470.03 -259.17,0 -470.03,210.81 -470.03,469.93 0,558.46 371.5,1093.15 924.42,1330.48z"/>
  </g>
 </g>
</svg>
